G04 #@! TF.GenerationSoftware,KiCad,Pcbnew,6.0.9-8da3e8f707~116~ubuntu20.04.1*
G04 #@! TF.CreationDate,2023-04-19T17:51:41+00:00*
G04 #@! TF.ProjectId,LEC030301,4c454330-3330-4333-9031-2e6b69636164,rev?*
G04 #@! TF.SameCoordinates,Original*
G04 #@! TF.FileFunction,Legend,Bot*
G04 #@! TF.FilePolarity,Positive*
%FSLAX46Y46*%
G04 Gerber Fmt 4.6, Leading zero omitted, Abs format (unit mm)*
G04 Created by KiCad (PCBNEW 6.0.9-8da3e8f707~116~ubuntu20.04.1) date 2023-04-19 17:51:41*
%MOMM*%
%LPD*%
G01*
G04 APERTURE LIST*
%ADD10C,0.120000*%
%ADD11C,0.010000*%
G04 APERTURE END LIST*
D10*
G04 #@! TO.C,H3*
X206424903Y-81280000D02*
G75*
G03*
X206424903Y-81280000I-3224903J0D01*
G01*
G36*
X201600000Y-81380000D02*
G01*
X201700000Y-81780000D01*
X201900000Y-82180000D01*
X202300000Y-82580000D01*
X202700000Y-82780000D01*
X203100000Y-82880000D01*
X203200000Y-82880000D01*
X203200000Y-84504903D01*
X202700000Y-84480000D01*
X201700000Y-84180000D01*
X200900000Y-83580000D01*
X200400000Y-82880000D01*
X200100000Y-82180000D01*
X200000000Y-81780000D01*
X200000000Y-81280000D01*
X201600000Y-81280000D01*
X201600000Y-81380000D01*
G37*
D11*
X201600000Y-81380000D02*
X201700000Y-81780000D01*
X201900000Y-82180000D01*
X202300000Y-82580000D01*
X202700000Y-82780000D01*
X203100000Y-82880000D01*
X203200000Y-82880000D01*
X203200000Y-84504903D01*
X202700000Y-84480000D01*
X201700000Y-84180000D01*
X200900000Y-83580000D01*
X200400000Y-82880000D01*
X200100000Y-82180000D01*
X200000000Y-81780000D01*
X200000000Y-81280000D01*
X201600000Y-81280000D01*
X201600000Y-81380000D01*
G36*
X203700000Y-78080000D02*
G01*
X204700000Y-78380000D01*
X205500000Y-78980000D01*
X206000000Y-79680000D01*
X206300000Y-80380000D01*
X206400000Y-80780000D01*
X206400000Y-81280000D01*
X204800000Y-81280000D01*
X204800000Y-81180000D01*
X204700000Y-80780000D01*
X204500000Y-80380000D01*
X204100000Y-79980000D01*
X203700000Y-79780000D01*
X203300000Y-79680000D01*
X203200000Y-79680000D01*
X203200000Y-78055097D01*
X203700000Y-78080000D01*
G37*
X203700000Y-78080000D02*
X204700000Y-78380000D01*
X205500000Y-78980000D01*
X206000000Y-79680000D01*
X206300000Y-80380000D01*
X206400000Y-80780000D01*
X206400000Y-81280000D01*
X204800000Y-81280000D01*
X204800000Y-81180000D01*
X204700000Y-80780000D01*
X204500000Y-80380000D01*
X204100000Y-79980000D01*
X203700000Y-79780000D01*
X203300000Y-79680000D01*
X203200000Y-79680000D01*
X203200000Y-78055097D01*
X203700000Y-78080000D01*
D10*
G04 #@! TO.C,H4*
X206424903Y-50800000D02*
G75*
G03*
X206424903Y-50800000I-3224903J0D01*
G01*
G36*
X201600000Y-50900000D02*
G01*
X201700000Y-51300000D01*
X201900000Y-51700000D01*
X202300000Y-52100000D01*
X202700000Y-52300000D01*
X203100000Y-52400000D01*
X203200000Y-52400000D01*
X203200000Y-54024903D01*
X202700000Y-54000000D01*
X201700000Y-53700000D01*
X200900000Y-53100000D01*
X200400000Y-52400000D01*
X200100000Y-51700000D01*
X200000000Y-51300000D01*
X200000000Y-50800000D01*
X201600000Y-50800000D01*
X201600000Y-50900000D01*
G37*
D11*
X201600000Y-50900000D02*
X201700000Y-51300000D01*
X201900000Y-51700000D01*
X202300000Y-52100000D01*
X202700000Y-52300000D01*
X203100000Y-52400000D01*
X203200000Y-52400000D01*
X203200000Y-54024903D01*
X202700000Y-54000000D01*
X201700000Y-53700000D01*
X200900000Y-53100000D01*
X200400000Y-52400000D01*
X200100000Y-51700000D01*
X200000000Y-51300000D01*
X200000000Y-50800000D01*
X201600000Y-50800000D01*
X201600000Y-50900000D01*
G36*
X203700000Y-47600000D02*
G01*
X204700000Y-47900000D01*
X205500000Y-48500000D01*
X206000000Y-49200000D01*
X206300000Y-49900000D01*
X206400000Y-50300000D01*
X206400000Y-50800000D01*
X204800000Y-50800000D01*
X204800000Y-50700000D01*
X204700000Y-50300000D01*
X204500000Y-49900000D01*
X204100000Y-49500000D01*
X203700000Y-49300000D01*
X203300000Y-49200000D01*
X203200000Y-49200000D01*
X203200000Y-47575097D01*
X203700000Y-47600000D01*
G37*
X203700000Y-47600000D02*
X204700000Y-47900000D01*
X205500000Y-48500000D01*
X206000000Y-49200000D01*
X206300000Y-49900000D01*
X206400000Y-50300000D01*
X206400000Y-50800000D01*
X204800000Y-50800000D01*
X204800000Y-50700000D01*
X204700000Y-50300000D01*
X204500000Y-49900000D01*
X204100000Y-49500000D01*
X203700000Y-49300000D01*
X203300000Y-49200000D01*
X203200000Y-49200000D01*
X203200000Y-47575097D01*
X203700000Y-47600000D01*
D10*
G04 #@! TO.C,H2*
X186104903Y-50800000D02*
G75*
G03*
X186104903Y-50800000I-3224903J0D01*
G01*
G36*
X181280000Y-50900000D02*
G01*
X181380000Y-51300000D01*
X181580000Y-51700000D01*
X181980000Y-52100000D01*
X182380000Y-52300000D01*
X182780000Y-52400000D01*
X182880000Y-52400000D01*
X182880000Y-54024903D01*
X182380000Y-54000000D01*
X181380000Y-53700000D01*
X180580000Y-53100000D01*
X180080000Y-52400000D01*
X179780000Y-51700000D01*
X179680000Y-51300000D01*
X179680000Y-50800000D01*
X181280000Y-50800000D01*
X181280000Y-50900000D01*
G37*
D11*
X181280000Y-50900000D02*
X181380000Y-51300000D01*
X181580000Y-51700000D01*
X181980000Y-52100000D01*
X182380000Y-52300000D01*
X182780000Y-52400000D01*
X182880000Y-52400000D01*
X182880000Y-54024903D01*
X182380000Y-54000000D01*
X181380000Y-53700000D01*
X180580000Y-53100000D01*
X180080000Y-52400000D01*
X179780000Y-51700000D01*
X179680000Y-51300000D01*
X179680000Y-50800000D01*
X181280000Y-50800000D01*
X181280000Y-50900000D01*
G36*
X183380000Y-47600000D02*
G01*
X184380000Y-47900000D01*
X185180000Y-48500000D01*
X185680000Y-49200000D01*
X185980000Y-49900000D01*
X186080000Y-50300000D01*
X186080000Y-50800000D01*
X184480000Y-50800000D01*
X184480000Y-50700000D01*
X184380000Y-50300000D01*
X184180000Y-49900000D01*
X183780000Y-49500000D01*
X183380000Y-49300000D01*
X182980000Y-49200000D01*
X182880000Y-49200000D01*
X182880000Y-47575097D01*
X183380000Y-47600000D01*
G37*
X183380000Y-47600000D02*
X184380000Y-47900000D01*
X185180000Y-48500000D01*
X185680000Y-49200000D01*
X185980000Y-49900000D01*
X186080000Y-50300000D01*
X186080000Y-50800000D01*
X184480000Y-50800000D01*
X184480000Y-50700000D01*
X184380000Y-50300000D01*
X184180000Y-49900000D01*
X183780000Y-49500000D01*
X183380000Y-49300000D01*
X182980000Y-49200000D01*
X182880000Y-49200000D01*
X182880000Y-47575097D01*
X183380000Y-47600000D01*
D10*
G04 #@! TO.C,H1*
X186104903Y-81280000D02*
G75*
G03*
X186104903Y-81280000I-3224903J0D01*
G01*
G36*
X183380000Y-78080000D02*
G01*
X184380000Y-78380000D01*
X185180000Y-78980000D01*
X185680000Y-79680000D01*
X185980000Y-80380000D01*
X186080000Y-80780000D01*
X186080000Y-81280000D01*
X184480000Y-81280000D01*
X184480000Y-81180000D01*
X184380000Y-80780000D01*
X184180000Y-80380000D01*
X183780000Y-79980000D01*
X183380000Y-79780000D01*
X182980000Y-79680000D01*
X182880000Y-79680000D01*
X182880000Y-78055097D01*
X183380000Y-78080000D01*
G37*
D11*
X183380000Y-78080000D02*
X184380000Y-78380000D01*
X185180000Y-78980000D01*
X185680000Y-79680000D01*
X185980000Y-80380000D01*
X186080000Y-80780000D01*
X186080000Y-81280000D01*
X184480000Y-81280000D01*
X184480000Y-81180000D01*
X184380000Y-80780000D01*
X184180000Y-80380000D01*
X183780000Y-79980000D01*
X183380000Y-79780000D01*
X182980000Y-79680000D01*
X182880000Y-79680000D01*
X182880000Y-78055097D01*
X183380000Y-78080000D01*
G36*
X181280000Y-81380000D02*
G01*
X181380000Y-81780000D01*
X181580000Y-82180000D01*
X181980000Y-82580000D01*
X182380000Y-82780000D01*
X182780000Y-82880000D01*
X182880000Y-82880000D01*
X182880000Y-84504903D01*
X182380000Y-84480000D01*
X181380000Y-84180000D01*
X180580000Y-83580000D01*
X180080000Y-82880000D01*
X179780000Y-82180000D01*
X179680000Y-81780000D01*
X179680000Y-81280000D01*
X181280000Y-81280000D01*
X181280000Y-81380000D01*
G37*
X181280000Y-81380000D02*
X181380000Y-81780000D01*
X181580000Y-82180000D01*
X181980000Y-82580000D01*
X182380000Y-82780000D01*
X182780000Y-82880000D01*
X182880000Y-82880000D01*
X182880000Y-84504903D01*
X182380000Y-84480000D01*
X181380000Y-84180000D01*
X180580000Y-83580000D01*
X180080000Y-82880000D01*
X179780000Y-82180000D01*
X179680000Y-81780000D01*
X179680000Y-81280000D01*
X181280000Y-81280000D01*
X181280000Y-81380000D01*
G04 #@! TO.C,REF\u002A\u002A*
G36*
X196057822Y-51277822D02*
G01*
X195190198Y-51277822D01*
X195190198Y-47757029D01*
X196057822Y-47757029D01*
X196057822Y-51277822D01*
G37*
X196057822Y-51277822D02*
X195190198Y-51277822D01*
X195190198Y-47757029D01*
X196057822Y-47757029D01*
X196057822Y-51277822D01*
G36*
X191092732Y-48585318D02*
G01*
X191117037Y-48587318D01*
X191177880Y-48591977D01*
X191227389Y-48595269D01*
X191260992Y-48596908D01*
X191274116Y-48596610D01*
X191270343Y-48592276D01*
X191250676Y-48572504D01*
X191215818Y-48538321D01*
X191167576Y-48491459D01*
X191107757Y-48433646D01*
X191038167Y-48366613D01*
X190960615Y-48292088D01*
X190876907Y-48211803D01*
X190788849Y-48127487D01*
X190698250Y-48040870D01*
X190606915Y-47953681D01*
X190516653Y-47867651D01*
X190429269Y-47784508D01*
X190346572Y-47705984D01*
X190270368Y-47633808D01*
X190202463Y-47569709D01*
X190144666Y-47515417D01*
X190041040Y-47418408D01*
X190129315Y-47417966D01*
X190217589Y-47417525D01*
X190849158Y-48018062D01*
X191480726Y-48618599D01*
X191624674Y-48630604D01*
X192200635Y-48678635D01*
X192302791Y-48687124D01*
X192430612Y-48697657D01*
X192549767Y-48707379D01*
X192657914Y-48716102D01*
X192752713Y-48723642D01*
X192831819Y-48729813D01*
X192892892Y-48734427D01*
X192933590Y-48737300D01*
X192951570Y-48738246D01*
X192959808Y-48735749D01*
X192977599Y-48724529D01*
X193004411Y-48703249D01*
X193016129Y-48692979D01*
X193041466Y-48670775D01*
X193089986Y-48625977D01*
X193151192Y-48567719D01*
X193226307Y-48494871D01*
X193316550Y-48406297D01*
X193423145Y-48300866D01*
X193493093Y-48231508D01*
X193590658Y-48134821D01*
X193687941Y-48038474D01*
X193782014Y-47945362D01*
X193869950Y-47858382D01*
X193948820Y-47780431D01*
X194015699Y-47714404D01*
X194067658Y-47663198D01*
X194271620Y-47462486D01*
X194309671Y-47498942D01*
X194318245Y-47507540D01*
X194339297Y-47532905D01*
X194347723Y-47550305D01*
X194340530Y-47563929D01*
X194318944Y-47589257D01*
X194287995Y-47619621D01*
X194268448Y-47638104D01*
X194232752Y-47672573D01*
X194182684Y-47721288D01*
X194120001Y-47782531D01*
X194046457Y-47854580D01*
X193963810Y-47935715D01*
X193873815Y-48024216D01*
X193778228Y-48118363D01*
X193678805Y-48216435D01*
X193129343Y-48758839D01*
X193414746Y-48780934D01*
X193475662Y-48785750D01*
X193557548Y-48792784D01*
X193619569Y-48799128D01*
X193664987Y-48805252D01*
X193697062Y-48811627D01*
X193719052Y-48818723D01*
X193734219Y-48827009D01*
X193755416Y-48838607D01*
X193794386Y-48848150D01*
X193850531Y-48850990D01*
X193932773Y-48850990D01*
X193932773Y-49077326D01*
X193756733Y-49077326D01*
X193756733Y-49922918D01*
X193812262Y-49971797D01*
X193826722Y-49985164D01*
X193884813Y-50057612D01*
X193920576Y-50139468D01*
X193932773Y-50228100D01*
X193926306Y-50306308D01*
X193899047Y-50394767D01*
X193850328Y-50470493D01*
X193836403Y-50485252D01*
X193791328Y-50522136D01*
X193738819Y-50554497D01*
X193687061Y-50577703D01*
X193644239Y-50587121D01*
X193638023Y-50587303D01*
X193615246Y-50588658D01*
X193599513Y-50592200D01*
X193592068Y-50599610D01*
X193594156Y-50612569D01*
X193607020Y-50632757D01*
X193631905Y-50661855D01*
X193670053Y-50701544D01*
X193722710Y-50753504D01*
X193791119Y-50819416D01*
X193876524Y-50900960D01*
X193922112Y-50944396D01*
X193998441Y-51017000D01*
X194070808Y-51085691D01*
X194136366Y-51147777D01*
X194192274Y-51200566D01*
X194235686Y-51241366D01*
X194263758Y-51267485D01*
X194341436Y-51338881D01*
X194253416Y-51427137D01*
X193681287Y-50881310D01*
X193645188Y-50846895D01*
X193516272Y-50724454D01*
X193404754Y-50619349D01*
X193310288Y-50531264D01*
X193232529Y-50459884D01*
X193171131Y-50404895D01*
X193125748Y-50365981D01*
X193096035Y-50342827D01*
X193081644Y-50335118D01*
X193081559Y-50335117D01*
X193063624Y-50336175D01*
X193023421Y-50339263D01*
X192963687Y-50344142D01*
X192887158Y-50350568D01*
X192796569Y-50358300D01*
X192694657Y-50367095D01*
X192584159Y-50376713D01*
X192467811Y-50386909D01*
X192348348Y-50397444D01*
X192228507Y-50408074D01*
X192111025Y-50418558D01*
X191998637Y-50428654D01*
X191894081Y-50438119D01*
X191800091Y-50446712D01*
X191719405Y-50454191D01*
X191654759Y-50460313D01*
X191608888Y-50464838D01*
X191584530Y-50467522D01*
X191531089Y-50474610D01*
X191531089Y-50749703D01*
X191320471Y-50750032D01*
X191109852Y-50750361D01*
X190650891Y-51202086D01*
X190191931Y-51653811D01*
X190104848Y-51654430D01*
X190017767Y-51655049D01*
X190566952Y-51113231D01*
X190619998Y-51060863D01*
X190729772Y-50952197D01*
X190823114Y-50859291D01*
X190901173Y-50780945D01*
X190965097Y-50715957D01*
X191016035Y-50663128D01*
X191029126Y-50649109D01*
X191211172Y-50649109D01*
X191430495Y-50649109D01*
X191430495Y-50567376D01*
X191430489Y-50560105D01*
X191429613Y-50519050D01*
X191425867Y-50496723D01*
X191417270Y-50487471D01*
X191401840Y-50485643D01*
X191379159Y-50493694D01*
X191341428Y-50521270D01*
X191292179Y-50567376D01*
X191211172Y-50649109D01*
X191029126Y-50649109D01*
X191055135Y-50621257D01*
X191083548Y-50589145D01*
X191102420Y-50565590D01*
X191112901Y-50549392D01*
X191116139Y-50539351D01*
X191115158Y-50522421D01*
X191107996Y-50512916D01*
X191088401Y-50511277D01*
X191050124Y-50515218D01*
X191026025Y-50517935D01*
X190985744Y-50521716D01*
X190958961Y-50523240D01*
X190949728Y-50523985D01*
X190939839Y-50531254D01*
X190936562Y-50551332D01*
X190937992Y-50590311D01*
X190938553Y-50600263D01*
X190937921Y-50640102D01*
X190929167Y-50668440D01*
X190909289Y-50696370D01*
X190905104Y-50701180D01*
X190854427Y-50740518D01*
X190795934Y-50757828D01*
X190734575Y-50752526D01*
X190675297Y-50724025D01*
X190671606Y-50721267D01*
X190639851Y-50683178D01*
X190621067Y-50633524D01*
X190616071Y-50579998D01*
X190625678Y-50530293D01*
X190650704Y-50492100D01*
X190663480Y-50479169D01*
X190666576Y-50466572D01*
X190656998Y-50448533D01*
X190633082Y-50418072D01*
X190625731Y-50408726D01*
X190579339Y-50336570D01*
X190538084Y-50251085D01*
X190504936Y-50160233D01*
X190482868Y-50071973D01*
X190474852Y-49994264D01*
X190474788Y-49986009D01*
X190470321Y-49940121D01*
X190457795Y-49914921D01*
X190435784Y-49907227D01*
X190428849Y-49906324D01*
X190422885Y-49901385D01*
X190418519Y-49889389D01*
X190415503Y-49867320D01*
X190413590Y-49832164D01*
X190413062Y-49806633D01*
X190512575Y-49806633D01*
X190575446Y-49806633D01*
X190575446Y-49429406D01*
X190512575Y-49429406D01*
X190512575Y-49806633D01*
X190413062Y-49806633D01*
X190412530Y-49780906D01*
X190412077Y-49710529D01*
X190411980Y-49618020D01*
X190412150Y-49531340D01*
X190412834Y-49457668D01*
X190414215Y-49403735D01*
X190416470Y-49366712D01*
X190419778Y-49343770D01*
X190424320Y-49332080D01*
X190430272Y-49328812D01*
X190572893Y-49328812D01*
X190676040Y-49328812D01*
X190676040Y-49907227D01*
X190585122Y-49907227D01*
X190593753Y-49979529D01*
X190612249Y-50090002D01*
X190645691Y-50201184D01*
X190692324Y-50293150D01*
X190752786Y-50367458D01*
X190801782Y-50415302D01*
X190801782Y-50405148D01*
X190914951Y-50405148D01*
X190962104Y-50400987D01*
X190983498Y-50399065D01*
X191041909Y-50393076D01*
X191080381Y-50387174D01*
X191102912Y-50380273D01*
X191113498Y-50371288D01*
X191116139Y-50359130D01*
X191117937Y-50348199D01*
X191123438Y-50343558D01*
X191535703Y-50343558D01*
X191543732Y-50343747D01*
X191574653Y-50342092D01*
X191626653Y-50338451D01*
X191697487Y-50333005D01*
X191784911Y-50325937D01*
X191886681Y-50317430D01*
X192000552Y-50307665D01*
X192124279Y-50296826D01*
X192255618Y-50285093D01*
X192356908Y-50275921D01*
X192482526Y-50264434D01*
X192598762Y-50253678D01*
X192703380Y-50243869D01*
X192794140Y-50235219D01*
X192868804Y-50227943D01*
X192925134Y-50222254D01*
X192960891Y-50218366D01*
X192973837Y-50216494D01*
X192969826Y-50210812D01*
X192950138Y-50189980D01*
X192916322Y-50156128D01*
X192870837Y-50111588D01*
X192816146Y-50058690D01*
X192754710Y-49999764D01*
X192688990Y-49937142D01*
X192621449Y-49873152D01*
X192554547Y-49810126D01*
X192490746Y-49750394D01*
X192432507Y-49696287D01*
X192382292Y-49650135D01*
X192342563Y-49614267D01*
X192315780Y-49591016D01*
X192304406Y-49582710D01*
X192293383Y-49590852D01*
X192266999Y-49614522D01*
X192227527Y-49651522D01*
X192177191Y-49699650D01*
X192118217Y-49756704D01*
X192052830Y-49820480D01*
X191983255Y-49888778D01*
X191911716Y-49959395D01*
X191840438Y-50030129D01*
X191771647Y-50098778D01*
X191707566Y-50163139D01*
X191650422Y-50221011D01*
X191602439Y-50270190D01*
X191565841Y-50308476D01*
X191542854Y-50333666D01*
X191535703Y-50343558D01*
X191123438Y-50343558D01*
X191126530Y-50340950D01*
X191146505Y-50336900D01*
X191182450Y-50335137D01*
X191238952Y-50334752D01*
X191361766Y-50334752D01*
X191401840Y-50294553D01*
X191499654Y-50196435D01*
X191637542Y-50058119D01*
X191531089Y-50058119D01*
X191531089Y-49303663D01*
X191770000Y-49303663D01*
X191770000Y-49922169D01*
X191986906Y-49712408D01*
X192028334Y-49672230D01*
X192085200Y-49616672D01*
X192134082Y-49568430D01*
X192172441Y-49530029D01*
X192197741Y-49503997D01*
X192207442Y-49492860D01*
X192204767Y-49488627D01*
X192202222Y-49485818D01*
X192403046Y-49485818D01*
X192407405Y-49493556D01*
X192427241Y-49516605D01*
X192460375Y-49551291D01*
X192503820Y-49594513D01*
X192554587Y-49643168D01*
X192568051Y-49655860D01*
X192628275Y-49712771D01*
X192699864Y-49780586D01*
X192777437Y-49854200D01*
X192855611Y-49928507D01*
X192929005Y-49998401D01*
X192933409Y-50002599D01*
X193001785Y-50067580D01*
X193054732Y-50117164D01*
X193094767Y-50153312D01*
X193124411Y-50177984D01*
X193146181Y-50193142D01*
X193162595Y-50200744D01*
X193176174Y-50202753D01*
X193189434Y-50201128D01*
X193190819Y-50200844D01*
X193222228Y-50187302D01*
X193236863Y-50160252D01*
X193268063Y-50076871D01*
X193320038Y-50002582D01*
X193388791Y-49944154D01*
X193471315Y-49904110D01*
X193564606Y-49884974D01*
X193643565Y-49878636D01*
X193643565Y-48929162D01*
X193615273Y-48922542D01*
X193608329Y-48921371D01*
X193577281Y-48917732D01*
X193527081Y-48912766D01*
X193461727Y-48906843D01*
X193385219Y-48900331D01*
X193301555Y-48893599D01*
X193016129Y-48871276D01*
X192710565Y-49172174D01*
X192654704Y-49227364D01*
X192586888Y-49294891D01*
X192526643Y-49355471D01*
X192476052Y-49406979D01*
X192437200Y-49447290D01*
X192412170Y-49474278D01*
X192403046Y-49485818D01*
X192202222Y-49485818D01*
X192186782Y-49468776D01*
X192153481Y-49434549D01*
X192106712Y-49387773D01*
X192048325Y-49330276D01*
X191980169Y-49263888D01*
X191904094Y-49190436D01*
X191821950Y-49111749D01*
X191738943Y-49032659D01*
X191657136Y-48955129D01*
X191590083Y-48892254D01*
X191536007Y-48842498D01*
X191493129Y-48804322D01*
X191459673Y-48776189D01*
X191433861Y-48756560D01*
X191430135Y-48754195D01*
X191624674Y-48754195D01*
X191624908Y-48754616D01*
X191636350Y-48766491D01*
X191663198Y-48792870D01*
X191703018Y-48831430D01*
X191753372Y-48879847D01*
X191811828Y-48935797D01*
X191875948Y-48996958D01*
X191943298Y-49061005D01*
X192011443Y-49125615D01*
X192077948Y-49188465D01*
X192140377Y-49247232D01*
X192196295Y-49299591D01*
X192304406Y-49400467D01*
X192306477Y-49402399D01*
X192581968Y-49126695D01*
X192649224Y-49059274D01*
X192712162Y-48995733D01*
X192760100Y-48946510D01*
X192794594Y-48909804D01*
X192817199Y-48883810D01*
X192829471Y-48866724D01*
X192832966Y-48856744D01*
X192829238Y-48852065D01*
X192819844Y-48850884D01*
X192804749Y-48850127D01*
X192765883Y-48847399D01*
X192706895Y-48842892D01*
X192630473Y-48836821D01*
X192539305Y-48829404D01*
X192436080Y-48820858D01*
X192323483Y-48811398D01*
X192204205Y-48801242D01*
X192099077Y-48792277D01*
X191988351Y-48782934D01*
X191887814Y-48774557D01*
X191799943Y-48767347D01*
X191727215Y-48761504D01*
X191672110Y-48757231D01*
X191637104Y-48754727D01*
X191624674Y-48754195D01*
X191430135Y-48754195D01*
X191413914Y-48743899D01*
X191398056Y-48736666D01*
X191384509Y-48733325D01*
X191377910Y-48732439D01*
X191341548Y-48728512D01*
X191288018Y-48723541D01*
X191223421Y-48718073D01*
X191153862Y-48712656D01*
X191129635Y-48710819D01*
X191064178Y-48705512D01*
X191007717Y-48700452D01*
X190965618Y-48696137D01*
X190943243Y-48693066D01*
X190914951Y-48687045D01*
X190914951Y-50405148D01*
X190801782Y-50405148D01*
X190801782Y-49000779D01*
X190711095Y-49004474D01*
X190620407Y-49008168D01*
X190605252Y-49083614D01*
X190598379Y-49121449D01*
X190588756Y-49184632D01*
X190581496Y-49243935D01*
X190572893Y-49328812D01*
X190430272Y-49328812D01*
X190444888Y-49318063D01*
X190454215Y-49287945D01*
X190455847Y-49276418D01*
X190461591Y-49237114D01*
X190469378Y-49184812D01*
X190478003Y-49127624D01*
X190482393Y-49096084D01*
X190487148Y-49049926D01*
X190488295Y-49017359D01*
X190485495Y-49003977D01*
X190483671Y-49001692D01*
X190479165Y-48980595D01*
X190476029Y-48942645D01*
X190474852Y-48893952D01*
X190474852Y-48788119D01*
X190512575Y-48788106D01*
X190515718Y-48788106D01*
X190528668Y-48787612D01*
X190550411Y-48781181D01*
X190550967Y-48780629D01*
X190701188Y-48780629D01*
X190702463Y-48782303D01*
X190719976Y-48786456D01*
X190751485Y-48788119D01*
X190801782Y-48788119D01*
X190801782Y-48731092D01*
X190801662Y-48714007D01*
X190799462Y-48688692D01*
X190792334Y-48681384D01*
X190777508Y-48687057D01*
X190774682Y-48688733D01*
X190752944Y-48707552D01*
X190728820Y-48734817D01*
X190709254Y-48762013D01*
X190701188Y-48780629D01*
X190550967Y-48780629D01*
X190568851Y-48762877D01*
X190590801Y-48727170D01*
X190610854Y-48695826D01*
X190649356Y-48648107D01*
X190692579Y-48604862D01*
X190734627Y-48571781D01*
X190769604Y-48554558D01*
X190783081Y-48550338D01*
X190792334Y-48542520D01*
X190795454Y-48539884D01*
X190800696Y-48518338D01*
X190801782Y-48478686D01*
X190801782Y-48410891D01*
X190914951Y-48410891D01*
X190914951Y-48570423D01*
X191092732Y-48585318D01*
G37*
X191092732Y-48585318D02*
X191117037Y-48587318D01*
X191177880Y-48591977D01*
X191227389Y-48595269D01*
X191260992Y-48596908D01*
X191274116Y-48596610D01*
X191270343Y-48592276D01*
X191250676Y-48572504D01*
X191215818Y-48538321D01*
X191167576Y-48491459D01*
X191107757Y-48433646D01*
X191038167Y-48366613D01*
X190960615Y-48292088D01*
X190876907Y-48211803D01*
X190788849Y-48127487D01*
X190698250Y-48040870D01*
X190606915Y-47953681D01*
X190516653Y-47867651D01*
X190429269Y-47784508D01*
X190346572Y-47705984D01*
X190270368Y-47633808D01*
X190202463Y-47569709D01*
X190144666Y-47515417D01*
X190041040Y-47418408D01*
X190129315Y-47417966D01*
X190217589Y-47417525D01*
X190849158Y-48018062D01*
X191480726Y-48618599D01*
X191624674Y-48630604D01*
X192200635Y-48678635D01*
X192302791Y-48687124D01*
X192430612Y-48697657D01*
X192549767Y-48707379D01*
X192657914Y-48716102D01*
X192752713Y-48723642D01*
X192831819Y-48729813D01*
X192892892Y-48734427D01*
X192933590Y-48737300D01*
X192951570Y-48738246D01*
X192959808Y-48735749D01*
X192977599Y-48724529D01*
X193004411Y-48703249D01*
X193016129Y-48692979D01*
X193041466Y-48670775D01*
X193089986Y-48625977D01*
X193151192Y-48567719D01*
X193226307Y-48494871D01*
X193316550Y-48406297D01*
X193423145Y-48300866D01*
X193493093Y-48231508D01*
X193590658Y-48134821D01*
X193687941Y-48038474D01*
X193782014Y-47945362D01*
X193869950Y-47858382D01*
X193948820Y-47780431D01*
X194015699Y-47714404D01*
X194067658Y-47663198D01*
X194271620Y-47462486D01*
X194309671Y-47498942D01*
X194318245Y-47507540D01*
X194339297Y-47532905D01*
X194347723Y-47550305D01*
X194340530Y-47563929D01*
X194318944Y-47589257D01*
X194287995Y-47619621D01*
X194268448Y-47638104D01*
X194232752Y-47672573D01*
X194182684Y-47721288D01*
X194120001Y-47782531D01*
X194046457Y-47854580D01*
X193963810Y-47935715D01*
X193873815Y-48024216D01*
X193778228Y-48118363D01*
X193678805Y-48216435D01*
X193129343Y-48758839D01*
X193414746Y-48780934D01*
X193475662Y-48785750D01*
X193557548Y-48792784D01*
X193619569Y-48799128D01*
X193664987Y-48805252D01*
X193697062Y-48811627D01*
X193719052Y-48818723D01*
X193734219Y-48827009D01*
X193755416Y-48838607D01*
X193794386Y-48848150D01*
X193850531Y-48850990D01*
X193932773Y-48850990D01*
X193932773Y-49077326D01*
X193756733Y-49077326D01*
X193756733Y-49922918D01*
X193812262Y-49971797D01*
X193826722Y-49985164D01*
X193884813Y-50057612D01*
X193920576Y-50139468D01*
X193932773Y-50228100D01*
X193926306Y-50306308D01*
X193899047Y-50394767D01*
X193850328Y-50470493D01*
X193836403Y-50485252D01*
X193791328Y-50522136D01*
X193738819Y-50554497D01*
X193687061Y-50577703D01*
X193644239Y-50587121D01*
X193638023Y-50587303D01*
X193615246Y-50588658D01*
X193599513Y-50592200D01*
X193592068Y-50599610D01*
X193594156Y-50612569D01*
X193607020Y-50632757D01*
X193631905Y-50661855D01*
X193670053Y-50701544D01*
X193722710Y-50753504D01*
X193791119Y-50819416D01*
X193876524Y-50900960D01*
X193922112Y-50944396D01*
X193998441Y-51017000D01*
X194070808Y-51085691D01*
X194136366Y-51147777D01*
X194192274Y-51200566D01*
X194235686Y-51241366D01*
X194263758Y-51267485D01*
X194341436Y-51338881D01*
X194253416Y-51427137D01*
X193681287Y-50881310D01*
X193645188Y-50846895D01*
X193516272Y-50724454D01*
X193404754Y-50619349D01*
X193310288Y-50531264D01*
X193232529Y-50459884D01*
X193171131Y-50404895D01*
X193125748Y-50365981D01*
X193096035Y-50342827D01*
X193081644Y-50335118D01*
X193081559Y-50335117D01*
X193063624Y-50336175D01*
X193023421Y-50339263D01*
X192963687Y-50344142D01*
X192887158Y-50350568D01*
X192796569Y-50358300D01*
X192694657Y-50367095D01*
X192584159Y-50376713D01*
X192467811Y-50386909D01*
X192348348Y-50397444D01*
X192228507Y-50408074D01*
X192111025Y-50418558D01*
X191998637Y-50428654D01*
X191894081Y-50438119D01*
X191800091Y-50446712D01*
X191719405Y-50454191D01*
X191654759Y-50460313D01*
X191608888Y-50464838D01*
X191584530Y-50467522D01*
X191531089Y-50474610D01*
X191531089Y-50749703D01*
X191320471Y-50750032D01*
X191109852Y-50750361D01*
X190650891Y-51202086D01*
X190191931Y-51653811D01*
X190104848Y-51654430D01*
X190017767Y-51655049D01*
X190566952Y-51113231D01*
X190619998Y-51060863D01*
X190729772Y-50952197D01*
X190823114Y-50859291D01*
X190901173Y-50780945D01*
X190965097Y-50715957D01*
X191016035Y-50663128D01*
X191029126Y-50649109D01*
X191211172Y-50649109D01*
X191430495Y-50649109D01*
X191430495Y-50567376D01*
X191430489Y-50560105D01*
X191429613Y-50519050D01*
X191425867Y-50496723D01*
X191417270Y-50487471D01*
X191401840Y-50485643D01*
X191379159Y-50493694D01*
X191341428Y-50521270D01*
X191292179Y-50567376D01*
X191211172Y-50649109D01*
X191029126Y-50649109D01*
X191055135Y-50621257D01*
X191083548Y-50589145D01*
X191102420Y-50565590D01*
X191112901Y-50549392D01*
X191116139Y-50539351D01*
X191115158Y-50522421D01*
X191107996Y-50512916D01*
X191088401Y-50511277D01*
X191050124Y-50515218D01*
X191026025Y-50517935D01*
X190985744Y-50521716D01*
X190958961Y-50523240D01*
X190949728Y-50523985D01*
X190939839Y-50531254D01*
X190936562Y-50551332D01*
X190937992Y-50590311D01*
X190938553Y-50600263D01*
X190937921Y-50640102D01*
X190929167Y-50668440D01*
X190909289Y-50696370D01*
X190905104Y-50701180D01*
X190854427Y-50740518D01*
X190795934Y-50757828D01*
X190734575Y-50752526D01*
X190675297Y-50724025D01*
X190671606Y-50721267D01*
X190639851Y-50683178D01*
X190621067Y-50633524D01*
X190616071Y-50579998D01*
X190625678Y-50530293D01*
X190650704Y-50492100D01*
X190663480Y-50479169D01*
X190666576Y-50466572D01*
X190656998Y-50448533D01*
X190633082Y-50418072D01*
X190625731Y-50408726D01*
X190579339Y-50336570D01*
X190538084Y-50251085D01*
X190504936Y-50160233D01*
X190482868Y-50071973D01*
X190474852Y-49994264D01*
X190474788Y-49986009D01*
X190470321Y-49940121D01*
X190457795Y-49914921D01*
X190435784Y-49907227D01*
X190428849Y-49906324D01*
X190422885Y-49901385D01*
X190418519Y-49889389D01*
X190415503Y-49867320D01*
X190413590Y-49832164D01*
X190413062Y-49806633D01*
X190512575Y-49806633D01*
X190575446Y-49806633D01*
X190575446Y-49429406D01*
X190512575Y-49429406D01*
X190512575Y-49806633D01*
X190413062Y-49806633D01*
X190412530Y-49780906D01*
X190412077Y-49710529D01*
X190411980Y-49618020D01*
X190412150Y-49531340D01*
X190412834Y-49457668D01*
X190414215Y-49403735D01*
X190416470Y-49366712D01*
X190419778Y-49343770D01*
X190424320Y-49332080D01*
X190430272Y-49328812D01*
X190572893Y-49328812D01*
X190676040Y-49328812D01*
X190676040Y-49907227D01*
X190585122Y-49907227D01*
X190593753Y-49979529D01*
X190612249Y-50090002D01*
X190645691Y-50201184D01*
X190692324Y-50293150D01*
X190752786Y-50367458D01*
X190801782Y-50415302D01*
X190801782Y-50405148D01*
X190914951Y-50405148D01*
X190962104Y-50400987D01*
X190983498Y-50399065D01*
X191041909Y-50393076D01*
X191080381Y-50387174D01*
X191102912Y-50380273D01*
X191113498Y-50371288D01*
X191116139Y-50359130D01*
X191117937Y-50348199D01*
X191123438Y-50343558D01*
X191535703Y-50343558D01*
X191543732Y-50343747D01*
X191574653Y-50342092D01*
X191626653Y-50338451D01*
X191697487Y-50333005D01*
X191784911Y-50325937D01*
X191886681Y-50317430D01*
X192000552Y-50307665D01*
X192124279Y-50296826D01*
X192255618Y-50285093D01*
X192356908Y-50275921D01*
X192482526Y-50264434D01*
X192598762Y-50253678D01*
X192703380Y-50243869D01*
X192794140Y-50235219D01*
X192868804Y-50227943D01*
X192925134Y-50222254D01*
X192960891Y-50218366D01*
X192973837Y-50216494D01*
X192969826Y-50210812D01*
X192950138Y-50189980D01*
X192916322Y-50156128D01*
X192870837Y-50111588D01*
X192816146Y-50058690D01*
X192754710Y-49999764D01*
X192688990Y-49937142D01*
X192621449Y-49873152D01*
X192554547Y-49810126D01*
X192490746Y-49750394D01*
X192432507Y-49696287D01*
X192382292Y-49650135D01*
X192342563Y-49614267D01*
X192315780Y-49591016D01*
X192304406Y-49582710D01*
X192293383Y-49590852D01*
X192266999Y-49614522D01*
X192227527Y-49651522D01*
X192177191Y-49699650D01*
X192118217Y-49756704D01*
X192052830Y-49820480D01*
X191983255Y-49888778D01*
X191911716Y-49959395D01*
X191840438Y-50030129D01*
X191771647Y-50098778D01*
X191707566Y-50163139D01*
X191650422Y-50221011D01*
X191602439Y-50270190D01*
X191565841Y-50308476D01*
X191542854Y-50333666D01*
X191535703Y-50343558D01*
X191123438Y-50343558D01*
X191126530Y-50340950D01*
X191146505Y-50336900D01*
X191182450Y-50335137D01*
X191238952Y-50334752D01*
X191361766Y-50334752D01*
X191401840Y-50294553D01*
X191499654Y-50196435D01*
X191637542Y-50058119D01*
X191531089Y-50058119D01*
X191531089Y-49303663D01*
X191770000Y-49303663D01*
X191770000Y-49922169D01*
X191986906Y-49712408D01*
X192028334Y-49672230D01*
X192085200Y-49616672D01*
X192134082Y-49568430D01*
X192172441Y-49530029D01*
X192197741Y-49503997D01*
X192207442Y-49492860D01*
X192204767Y-49488627D01*
X192202222Y-49485818D01*
X192403046Y-49485818D01*
X192407405Y-49493556D01*
X192427241Y-49516605D01*
X192460375Y-49551291D01*
X192503820Y-49594513D01*
X192554587Y-49643168D01*
X192568051Y-49655860D01*
X192628275Y-49712771D01*
X192699864Y-49780586D01*
X192777437Y-49854200D01*
X192855611Y-49928507D01*
X192929005Y-49998401D01*
X192933409Y-50002599D01*
X193001785Y-50067580D01*
X193054732Y-50117164D01*
X193094767Y-50153312D01*
X193124411Y-50177984D01*
X193146181Y-50193142D01*
X193162595Y-50200744D01*
X193176174Y-50202753D01*
X193189434Y-50201128D01*
X193190819Y-50200844D01*
X193222228Y-50187302D01*
X193236863Y-50160252D01*
X193268063Y-50076871D01*
X193320038Y-50002582D01*
X193388791Y-49944154D01*
X193471315Y-49904110D01*
X193564606Y-49884974D01*
X193643565Y-49878636D01*
X193643565Y-48929162D01*
X193615273Y-48922542D01*
X193608329Y-48921371D01*
X193577281Y-48917732D01*
X193527081Y-48912766D01*
X193461727Y-48906843D01*
X193385219Y-48900331D01*
X193301555Y-48893599D01*
X193016129Y-48871276D01*
X192710565Y-49172174D01*
X192654704Y-49227364D01*
X192586888Y-49294891D01*
X192526643Y-49355471D01*
X192476052Y-49406979D01*
X192437200Y-49447290D01*
X192412170Y-49474278D01*
X192403046Y-49485818D01*
X192202222Y-49485818D01*
X192186782Y-49468776D01*
X192153481Y-49434549D01*
X192106712Y-49387773D01*
X192048325Y-49330276D01*
X191980169Y-49263888D01*
X191904094Y-49190436D01*
X191821950Y-49111749D01*
X191738943Y-49032659D01*
X191657136Y-48955129D01*
X191590083Y-48892254D01*
X191536007Y-48842498D01*
X191493129Y-48804322D01*
X191459673Y-48776189D01*
X191433861Y-48756560D01*
X191430135Y-48754195D01*
X191624674Y-48754195D01*
X191624908Y-48754616D01*
X191636350Y-48766491D01*
X191663198Y-48792870D01*
X191703018Y-48831430D01*
X191753372Y-48879847D01*
X191811828Y-48935797D01*
X191875948Y-48996958D01*
X191943298Y-49061005D01*
X192011443Y-49125615D01*
X192077948Y-49188465D01*
X192140377Y-49247232D01*
X192196295Y-49299591D01*
X192304406Y-49400467D01*
X192306477Y-49402399D01*
X192581968Y-49126695D01*
X192649224Y-49059274D01*
X192712162Y-48995733D01*
X192760100Y-48946510D01*
X192794594Y-48909804D01*
X192817199Y-48883810D01*
X192829471Y-48866724D01*
X192832966Y-48856744D01*
X192829238Y-48852065D01*
X192819844Y-48850884D01*
X192804749Y-48850127D01*
X192765883Y-48847399D01*
X192706895Y-48842892D01*
X192630473Y-48836821D01*
X192539305Y-48829404D01*
X192436080Y-48820858D01*
X192323483Y-48811398D01*
X192204205Y-48801242D01*
X192099077Y-48792277D01*
X191988351Y-48782934D01*
X191887814Y-48774557D01*
X191799943Y-48767347D01*
X191727215Y-48761504D01*
X191672110Y-48757231D01*
X191637104Y-48754727D01*
X191624674Y-48754195D01*
X191430135Y-48754195D01*
X191413914Y-48743899D01*
X191398056Y-48736666D01*
X191384509Y-48733325D01*
X191377910Y-48732439D01*
X191341548Y-48728512D01*
X191288018Y-48723541D01*
X191223421Y-48718073D01*
X191153862Y-48712656D01*
X191129635Y-48710819D01*
X191064178Y-48705512D01*
X191007717Y-48700452D01*
X190965618Y-48696137D01*
X190943243Y-48693066D01*
X190914951Y-48687045D01*
X190914951Y-50405148D01*
X190801782Y-50405148D01*
X190801782Y-49000779D01*
X190711095Y-49004474D01*
X190620407Y-49008168D01*
X190605252Y-49083614D01*
X190598379Y-49121449D01*
X190588756Y-49184632D01*
X190581496Y-49243935D01*
X190572893Y-49328812D01*
X190430272Y-49328812D01*
X190444888Y-49318063D01*
X190454215Y-49287945D01*
X190455847Y-49276418D01*
X190461591Y-49237114D01*
X190469378Y-49184812D01*
X190478003Y-49127624D01*
X190482393Y-49096084D01*
X190487148Y-49049926D01*
X190488295Y-49017359D01*
X190485495Y-49003977D01*
X190483671Y-49001692D01*
X190479165Y-48980595D01*
X190476029Y-48942645D01*
X190474852Y-48893952D01*
X190474852Y-48788119D01*
X190512575Y-48788106D01*
X190515718Y-48788106D01*
X190528668Y-48787612D01*
X190550411Y-48781181D01*
X190550967Y-48780629D01*
X190701188Y-48780629D01*
X190702463Y-48782303D01*
X190719976Y-48786456D01*
X190751485Y-48788119D01*
X190801782Y-48788119D01*
X190801782Y-48731092D01*
X190801662Y-48714007D01*
X190799462Y-48688692D01*
X190792334Y-48681384D01*
X190777508Y-48687057D01*
X190774682Y-48688733D01*
X190752944Y-48707552D01*
X190728820Y-48734817D01*
X190709254Y-48762013D01*
X190701188Y-48780629D01*
X190550967Y-48780629D01*
X190568851Y-48762877D01*
X190590801Y-48727170D01*
X190610854Y-48695826D01*
X190649356Y-48648107D01*
X190692579Y-48604862D01*
X190734627Y-48571781D01*
X190769604Y-48554558D01*
X190783081Y-48550338D01*
X190792334Y-48542520D01*
X190795454Y-48539884D01*
X190800696Y-48518338D01*
X190801782Y-48478686D01*
X190801782Y-48410891D01*
X190914951Y-48410891D01*
X190914951Y-48570423D01*
X191092732Y-48585318D01*
G04 #@! TD*
M02*
