G04 #@! TF.GenerationSoftware,KiCad,Pcbnew,6.0.9-8da3e8f707~116~ubuntu20.04.1*
G04 #@! TF.CreationDate,2023-04-19T17:51:41+00:00*
G04 #@! TF.ProjectId,LEC030301,4c454330-3330-4333-9031-2e6b69636164,rev?*
G04 #@! TF.SameCoordinates,Original*
G04 #@! TF.FileFunction,Profile,NP*
%FSLAX46Y46*%
G04 Gerber Fmt 4.6, Leading zero omitted, Abs format (unit mm)*
G04 Created by KiCad (PCBNEW 6.0.9-8da3e8f707~116~ubuntu20.04.1) date 2023-04-19 17:51:41*
%MOMM*%
%LPD*%
G01*
G04 APERTURE LIST*
G04 #@! TA.AperFunction,Profile*
%ADD10C,0.050000*%
G04 #@! TD*
G04 APERTURE END LIST*
D10*
X186690000Y-54610000D02*
X190500000Y-58420000D01*
X186690000Y-77470000D02*
X190500000Y-73660000D01*
X190500000Y-73660000D02*
X190500000Y-58420000D01*
X199390000Y-80010000D02*
X199390000Y-77470000D01*
X186690000Y-80010000D02*
X186690000Y-77470000D01*
X199390000Y-54610000D02*
X199390000Y-52070000D01*
X186690000Y-54610000D02*
X186690000Y-52070000D01*
X200660000Y-46990000D02*
X203200000Y-46990000D01*
X198120000Y-46990000D02*
X199390000Y-48260000D01*
X186690000Y-48260000D02*
X187960000Y-46990000D01*
X185420000Y-46990000D02*
X186690000Y-48260000D01*
X182880000Y-46990000D02*
X185420000Y-46990000D01*
X200660000Y-85090000D02*
X203200000Y-85090000D01*
X187960000Y-85090000D02*
X198120000Y-85090000D01*
X185420000Y-85090000D02*
X186690000Y-83820000D01*
X182880000Y-85090000D02*
X185420000Y-85090000D01*
X179070000Y-50800000D02*
X179070000Y-81280000D01*
X207010000Y-50800000D02*
X207010000Y-81280000D01*
X207010000Y-50800000D02*
G75*
G03*
X203200000Y-46990000I-3810000J0D01*
G01*
X179070000Y-81280000D02*
G75*
G03*
X182880000Y-85090000I3810000J0D01*
G01*
X182880000Y-46990000D02*
G75*
G03*
X179070000Y-50800000I0J-3810000D01*
G01*
X199390000Y-80010000D02*
X198120000Y-80010000D01*
X198120000Y-80010000D02*
X186690000Y-80010000D01*
X203200000Y-85090000D02*
G75*
G03*
X207010000Y-81280000I0J3810000D01*
G01*
X199390000Y-83820000D02*
X200660000Y-85090000D01*
X199390000Y-48260000D02*
X200660000Y-46990000D01*
X187960000Y-46990000D02*
X198120000Y-46990000D01*
X198120000Y-85090000D02*
X199390000Y-83820000D01*
X186690000Y-52070000D02*
X199390000Y-52070000D01*
X186690000Y-83820000D02*
X187960000Y-85090000D01*
X199390000Y-54610000D02*
X195580000Y-58420000D01*
X195580000Y-58420000D02*
X195580000Y-73660000D01*
X195580000Y-73660000D02*
X199390000Y-77470000D01*
M02*
