G04 #@! TF.GenerationSoftware,KiCad,Pcbnew,6.0.9-8da3e8f707~116~ubuntu20.04.1*
G04 #@! TF.CreationDate,2023-04-19T17:51:41+00:00*
G04 #@! TF.ProjectId,LEC030301,4c454330-3330-4333-9031-2e6b69636164,rev?*
G04 #@! TF.SameCoordinates,Original*
G04 #@! TF.FileFunction,Soldermask,Top*
G04 #@! TF.FilePolarity,Negative*
%FSLAX46Y46*%
G04 Gerber Fmt 4.6, Leading zero omitted, Abs format (unit mm)*
G04 Created by KiCad (PCBNEW 6.0.9-8da3e8f707~116~ubuntu20.04.1) date 2023-04-19 17:51:41*
%MOMM*%
%LPD*%
G01*
G04 APERTURE LIST*
%ADD10C,0.010000*%
%ADD11C,3.200000*%
%ADD12R,3.000000X3.000000*%
%ADD13C,3.000000*%
G04 APERTURE END LIST*
G04 #@! TO.C,LOGO1*
G36*
X191472820Y-82633440D02*
G01*
X190380620Y-82633440D01*
X190380620Y-82409920D01*
X191472820Y-82409920D01*
X191472820Y-82633440D01*
G37*
D10*
X191472820Y-82633440D02*
X190380620Y-82633440D01*
X190380620Y-82409920D01*
X191472820Y-82409920D01*
X191472820Y-82633440D01*
G36*
X192098402Y-81915255D02*
G01*
X192103120Y-81964642D01*
X192112714Y-82013391D01*
X192126988Y-82061126D01*
X192145743Y-82107472D01*
X192168784Y-82152055D01*
X192195913Y-82194500D01*
X192226933Y-82234432D01*
X192261648Y-82271476D01*
X192299860Y-82305258D01*
X192305940Y-82310066D01*
X192346038Y-82338193D01*
X192389345Y-82362754D01*
X192435214Y-82383491D01*
X192482999Y-82400147D01*
X192532054Y-82412466D01*
X192581733Y-82420191D01*
X192583061Y-82420331D01*
X192604417Y-82421812D01*
X192629012Y-82422277D01*
X192655170Y-82421784D01*
X192681216Y-82420393D01*
X192705475Y-82418161D01*
X192725040Y-82415369D01*
X192775420Y-82403968D01*
X192824171Y-82388011D01*
X192870973Y-82367722D01*
X192915506Y-82343326D01*
X192957447Y-82315050D01*
X192996477Y-82283119D01*
X193032275Y-82247757D01*
X193064521Y-82209189D01*
X193092893Y-82167642D01*
X193103459Y-82149570D01*
X193107764Y-82141866D01*
X193110977Y-82136162D01*
X193112419Y-82133660D01*
X193112428Y-82133648D01*
X193114718Y-82134589D01*
X193120966Y-82137586D01*
X193130622Y-82142356D01*
X193143134Y-82148617D01*
X193157950Y-82156087D01*
X193174518Y-82164484D01*
X193192288Y-82173526D01*
X193210709Y-82182930D01*
X193229227Y-82192414D01*
X193247292Y-82201697D01*
X193264353Y-82210496D01*
X193279857Y-82218530D01*
X193293254Y-82225515D01*
X193303992Y-82231170D01*
X193311519Y-82235212D01*
X193315284Y-82237360D01*
X193315579Y-82237574D01*
X193316342Y-82239476D01*
X193315650Y-82242864D01*
X193313236Y-82248246D01*
X193308829Y-82256130D01*
X193302161Y-82267022D01*
X193292963Y-82281432D01*
X193289532Y-82286730D01*
X193253745Y-82337247D01*
X193214233Y-82384456D01*
X193171253Y-82428181D01*
X193125061Y-82468245D01*
X193075915Y-82504473D01*
X193024071Y-82536690D01*
X192969786Y-82564719D01*
X192913317Y-82588386D01*
X192854922Y-82607513D01*
X192801386Y-82620608D01*
X192780451Y-82624715D01*
X192761307Y-82627937D01*
X192742786Y-82630387D01*
X192723721Y-82632177D01*
X192702944Y-82633419D01*
X192679286Y-82634226D01*
X192655190Y-82634665D01*
X192636965Y-82634860D01*
X192620071Y-82634960D01*
X192605281Y-82634966D01*
X192593367Y-82634880D01*
X192585103Y-82634704D01*
X192581530Y-82634485D01*
X192575642Y-82633741D01*
X192566310Y-82632630D01*
X192555138Y-82631341D01*
X192549780Y-82630735D01*
X192494003Y-82622047D01*
X192438007Y-82608574D01*
X192382401Y-82590545D01*
X192327794Y-82568188D01*
X192274797Y-82541731D01*
X192224019Y-82511401D01*
X192215770Y-82505955D01*
X192185798Y-82485098D01*
X192159044Y-82464653D01*
X192133942Y-82443317D01*
X192108927Y-82419790D01*
X192093718Y-82404501D01*
X192051520Y-82357656D01*
X192013616Y-82308179D01*
X191980086Y-82256236D01*
X191951014Y-82201994D01*
X191926482Y-82145618D01*
X191906574Y-82087274D01*
X191891371Y-82027129D01*
X191883187Y-81981477D01*
X191881980Y-81972261D01*
X191880577Y-81959810D01*
X191879087Y-81945307D01*
X191877618Y-81929937D01*
X191876281Y-81914885D01*
X191875185Y-81901334D01*
X191874438Y-81890470D01*
X191874150Y-81883505D01*
X191876602Y-81883107D01*
X191883621Y-81882738D01*
X191894692Y-81882405D01*
X191909304Y-81882119D01*
X191926941Y-81881886D01*
X191947091Y-81881717D01*
X191969241Y-81881620D01*
X191985519Y-81881600D01*
X192096899Y-81881600D01*
X192098402Y-81915255D01*
G37*
X192098402Y-81915255D02*
X192103120Y-81964642D01*
X192112714Y-82013391D01*
X192126988Y-82061126D01*
X192145743Y-82107472D01*
X192168784Y-82152055D01*
X192195913Y-82194500D01*
X192226933Y-82234432D01*
X192261648Y-82271476D01*
X192299860Y-82305258D01*
X192305940Y-82310066D01*
X192346038Y-82338193D01*
X192389345Y-82362754D01*
X192435214Y-82383491D01*
X192482999Y-82400147D01*
X192532054Y-82412466D01*
X192581733Y-82420191D01*
X192583061Y-82420331D01*
X192604417Y-82421812D01*
X192629012Y-82422277D01*
X192655170Y-82421784D01*
X192681216Y-82420393D01*
X192705475Y-82418161D01*
X192725040Y-82415369D01*
X192775420Y-82403968D01*
X192824171Y-82388011D01*
X192870973Y-82367722D01*
X192915506Y-82343326D01*
X192957447Y-82315050D01*
X192996477Y-82283119D01*
X193032275Y-82247757D01*
X193064521Y-82209189D01*
X193092893Y-82167642D01*
X193103459Y-82149570D01*
X193107764Y-82141866D01*
X193110977Y-82136162D01*
X193112419Y-82133660D01*
X193112428Y-82133648D01*
X193114718Y-82134589D01*
X193120966Y-82137586D01*
X193130622Y-82142356D01*
X193143134Y-82148617D01*
X193157950Y-82156087D01*
X193174518Y-82164484D01*
X193192288Y-82173526D01*
X193210709Y-82182930D01*
X193229227Y-82192414D01*
X193247292Y-82201697D01*
X193264353Y-82210496D01*
X193279857Y-82218530D01*
X193293254Y-82225515D01*
X193303992Y-82231170D01*
X193311519Y-82235212D01*
X193315284Y-82237360D01*
X193315579Y-82237574D01*
X193316342Y-82239476D01*
X193315650Y-82242864D01*
X193313236Y-82248246D01*
X193308829Y-82256130D01*
X193302161Y-82267022D01*
X193292963Y-82281432D01*
X193289532Y-82286730D01*
X193253745Y-82337247D01*
X193214233Y-82384456D01*
X193171253Y-82428181D01*
X193125061Y-82468245D01*
X193075915Y-82504473D01*
X193024071Y-82536690D01*
X192969786Y-82564719D01*
X192913317Y-82588386D01*
X192854922Y-82607513D01*
X192801386Y-82620608D01*
X192780451Y-82624715D01*
X192761307Y-82627937D01*
X192742786Y-82630387D01*
X192723721Y-82632177D01*
X192702944Y-82633419D01*
X192679286Y-82634226D01*
X192655190Y-82634665D01*
X192636965Y-82634860D01*
X192620071Y-82634960D01*
X192605281Y-82634966D01*
X192593367Y-82634880D01*
X192585103Y-82634704D01*
X192581530Y-82634485D01*
X192575642Y-82633741D01*
X192566310Y-82632630D01*
X192555138Y-82631341D01*
X192549780Y-82630735D01*
X192494003Y-82622047D01*
X192438007Y-82608574D01*
X192382401Y-82590545D01*
X192327794Y-82568188D01*
X192274797Y-82541731D01*
X192224019Y-82511401D01*
X192215770Y-82505955D01*
X192185798Y-82485098D01*
X192159044Y-82464653D01*
X192133942Y-82443317D01*
X192108927Y-82419790D01*
X192093718Y-82404501D01*
X192051520Y-82357656D01*
X192013616Y-82308179D01*
X191980086Y-82256236D01*
X191951014Y-82201994D01*
X191926482Y-82145618D01*
X191906574Y-82087274D01*
X191891371Y-82027129D01*
X191883187Y-81981477D01*
X191881980Y-81972261D01*
X191880577Y-81959810D01*
X191879087Y-81945307D01*
X191877618Y-81929937D01*
X191876281Y-81914885D01*
X191875185Y-81901334D01*
X191874438Y-81890470D01*
X191874150Y-81883505D01*
X191876602Y-81883107D01*
X191883621Y-81882738D01*
X191894692Y-81882405D01*
X191909304Y-81882119D01*
X191926941Y-81881886D01*
X191947091Y-81881717D01*
X191969241Y-81881620D01*
X191985519Y-81881600D01*
X192096899Y-81881600D01*
X192098402Y-81915255D01*
G36*
X191472820Y-81167860D02*
G01*
X190599060Y-81167860D01*
X190599060Y-81480280D01*
X190375540Y-81480280D01*
X190375540Y-80946880D01*
X191472820Y-80946880D01*
X191472820Y-81167860D01*
G37*
X191472820Y-81167860D02*
X190599060Y-81167860D01*
X190599060Y-81480280D01*
X190375540Y-81480280D01*
X190375540Y-80946880D01*
X191472820Y-80946880D01*
X191472820Y-81167860D01*
G36*
X195658740Y-82625820D02*
G01*
X195437760Y-82625820D01*
X195437760Y-80954500D01*
X195658740Y-80954500D01*
X195658740Y-82625820D01*
G37*
X195658740Y-82625820D02*
X195437760Y-82625820D01*
X195437760Y-80954500D01*
X195658740Y-80954500D01*
X195658740Y-82625820D01*
G36*
X196300968Y-80954500D02*
G01*
X196506269Y-81237044D01*
X196530799Y-81270835D01*
X196554493Y-81303537D01*
X196577180Y-81334909D01*
X196598689Y-81364714D01*
X196618848Y-81392711D01*
X196637487Y-81418663D01*
X196654435Y-81442329D01*
X196669520Y-81463470D01*
X196682571Y-81481848D01*
X196693418Y-81497223D01*
X196701889Y-81509356D01*
X196707814Y-81518009D01*
X196711021Y-81522942D01*
X196711570Y-81524021D01*
X196710129Y-81527001D01*
X196706077Y-81533439D01*
X196699817Y-81542779D01*
X196691755Y-81554461D01*
X196682293Y-81567928D01*
X196671838Y-81582622D01*
X196660793Y-81597984D01*
X196649562Y-81613457D01*
X196638551Y-81628483D01*
X196628162Y-81642504D01*
X196618801Y-81654962D01*
X196610872Y-81665298D01*
X196604779Y-81672955D01*
X196600927Y-81677375D01*
X196599810Y-81678247D01*
X196598071Y-81676223D01*
X196593504Y-81670295D01*
X196586264Y-81660671D01*
X196576502Y-81647561D01*
X196564373Y-81631174D01*
X196550029Y-81611719D01*
X196533625Y-81589405D01*
X196515313Y-81564442D01*
X196495247Y-81537037D01*
X196473579Y-81507402D01*
X196450465Y-81475743D01*
X196426056Y-81442272D01*
X196400506Y-81407196D01*
X196373968Y-81370724D01*
X196346596Y-81333067D01*
X196338190Y-81321493D01*
X196310558Y-81283445D01*
X196283707Y-81246468D01*
X196257789Y-81210772D01*
X196232960Y-81176572D01*
X196209374Y-81144081D01*
X196187186Y-81113511D01*
X196166549Y-81085075D01*
X196147618Y-81058985D01*
X196130548Y-81035456D01*
X196115493Y-81014699D01*
X196102608Y-80996927D01*
X196092047Y-80982354D01*
X196083964Y-80971192D01*
X196078514Y-80963654D01*
X196075851Y-80959952D01*
X196075625Y-80959630D01*
X196074877Y-80958417D01*
X196074715Y-80957412D01*
X196075563Y-80956595D01*
X196077844Y-80955947D01*
X196081981Y-80955449D01*
X196088399Y-80955081D01*
X196097522Y-80954823D01*
X196109772Y-80954655D01*
X196125573Y-80954559D01*
X196145349Y-80954514D01*
X196169525Y-80954500D01*
X196186554Y-80954499D01*
X196300968Y-80954500D01*
G37*
X196300968Y-80954500D02*
X196506269Y-81237044D01*
X196530799Y-81270835D01*
X196554493Y-81303537D01*
X196577180Y-81334909D01*
X196598689Y-81364714D01*
X196618848Y-81392711D01*
X196637487Y-81418663D01*
X196654435Y-81442329D01*
X196669520Y-81463470D01*
X196682571Y-81481848D01*
X196693418Y-81497223D01*
X196701889Y-81509356D01*
X196707814Y-81518009D01*
X196711021Y-81522942D01*
X196711570Y-81524021D01*
X196710129Y-81527001D01*
X196706077Y-81533439D01*
X196699817Y-81542779D01*
X196691755Y-81554461D01*
X196682293Y-81567928D01*
X196671838Y-81582622D01*
X196660793Y-81597984D01*
X196649562Y-81613457D01*
X196638551Y-81628483D01*
X196628162Y-81642504D01*
X196618801Y-81654962D01*
X196610872Y-81665298D01*
X196604779Y-81672955D01*
X196600927Y-81677375D01*
X196599810Y-81678247D01*
X196598071Y-81676223D01*
X196593504Y-81670295D01*
X196586264Y-81660671D01*
X196576502Y-81647561D01*
X196564373Y-81631174D01*
X196550029Y-81611719D01*
X196533625Y-81589405D01*
X196515313Y-81564442D01*
X196495247Y-81537037D01*
X196473579Y-81507402D01*
X196450465Y-81475743D01*
X196426056Y-81442272D01*
X196400506Y-81407196D01*
X196373968Y-81370724D01*
X196346596Y-81333067D01*
X196338190Y-81321493D01*
X196310558Y-81283445D01*
X196283707Y-81246468D01*
X196257789Y-81210772D01*
X196232960Y-81176572D01*
X196209374Y-81144081D01*
X196187186Y-81113511D01*
X196166549Y-81085075D01*
X196147618Y-81058985D01*
X196130548Y-81035456D01*
X196115493Y-81014699D01*
X196102608Y-80996927D01*
X196092047Y-80982354D01*
X196083964Y-80971192D01*
X196078514Y-80963654D01*
X196075851Y-80959952D01*
X196075625Y-80959630D01*
X196074877Y-80958417D01*
X196074715Y-80957412D01*
X196075563Y-80956595D01*
X196077844Y-80955947D01*
X196081981Y-80955449D01*
X196088399Y-80955081D01*
X196097522Y-80954823D01*
X196109772Y-80954655D01*
X196125573Y-80954559D01*
X196145349Y-80954514D01*
X196169525Y-80954500D01*
X196186554Y-80954499D01*
X196300968Y-80954500D01*
G36*
X194411600Y-82625820D02*
G01*
X194190620Y-82625820D01*
X194190620Y-81343120D01*
X194411600Y-81343120D01*
X194411600Y-82625820D01*
G37*
X194411600Y-82625820D02*
X194190620Y-82625820D01*
X194190620Y-81343120D01*
X194411600Y-81343120D01*
X194411600Y-82625820D01*
G36*
X189001400Y-82232120D02*
G01*
X188780420Y-82232120D01*
X188780420Y-80957040D01*
X189001400Y-80957040D01*
X189001400Y-82232120D01*
G37*
X189001400Y-82232120D02*
X188780420Y-82232120D01*
X188780420Y-80957040D01*
X189001400Y-80957040D01*
X189001400Y-82232120D01*
G36*
X197416304Y-80960092D02*
G01*
X197434850Y-80960188D01*
X197548296Y-80960850D01*
X197242148Y-81379183D01*
X197212064Y-81420298D01*
X197182787Y-81460325D01*
X197154458Y-81499069D01*
X197127217Y-81536338D01*
X197101206Y-81571940D01*
X197076566Y-81605680D01*
X197053436Y-81637366D01*
X197031957Y-81666806D01*
X197012271Y-81693806D01*
X196994518Y-81718172D01*
X196978839Y-81739713D01*
X196965374Y-81758236D01*
X196954265Y-81773546D01*
X196945651Y-81785452D01*
X196939674Y-81793760D01*
X196936474Y-81798277D01*
X196935946Y-81799087D01*
X196937407Y-81801269D01*
X196941707Y-81807370D01*
X196948703Y-81817192D01*
X196958256Y-81830541D01*
X196970224Y-81847220D01*
X196984465Y-81867032D01*
X197000838Y-81889783D01*
X197019202Y-81915275D01*
X197039416Y-81943314D01*
X197061337Y-81973701D01*
X197084825Y-82006243D01*
X197109739Y-82040742D01*
X197135938Y-82077003D01*
X197163279Y-82114829D01*
X197191622Y-82154025D01*
X197220825Y-82194395D01*
X197232671Y-82210766D01*
X197262190Y-82251564D01*
X197290913Y-82291274D01*
X197318699Y-82329701D01*
X197345405Y-82366647D01*
X197370889Y-82401916D01*
X197395010Y-82435310D01*
X197417626Y-82466635D01*
X197438595Y-82495692D01*
X197457775Y-82522285D01*
X197475025Y-82546218D01*
X197490202Y-82567293D01*
X197503164Y-82585315D01*
X197513770Y-82600086D01*
X197521878Y-82611411D01*
X197527346Y-82619091D01*
X197530033Y-82622932D01*
X197530296Y-82623347D01*
X197528016Y-82623981D01*
X197520822Y-82624522D01*
X197508878Y-82624969D01*
X197492349Y-82625317D01*
X197471400Y-82625563D01*
X197446196Y-82625703D01*
X197417266Y-82625734D01*
X197303390Y-82625649D01*
X197062090Y-82291780D01*
X197035526Y-82255037D01*
X197009765Y-82219426D01*
X196984965Y-82185163D01*
X196961283Y-82152466D01*
X196938876Y-82121550D01*
X196917902Y-82092632D01*
X196898517Y-82065929D01*
X196880880Y-82041658D01*
X196865147Y-82020034D01*
X196851475Y-82001274D01*
X196840023Y-81985596D01*
X196830948Y-81973215D01*
X196824406Y-81964347D01*
X196820556Y-81959211D01*
X196819520Y-81957933D01*
X196817906Y-81959950D01*
X196813455Y-81965854D01*
X196806324Y-81975427D01*
X196796674Y-81988455D01*
X196784661Y-82004722D01*
X196770447Y-82024010D01*
X196754188Y-82046106D01*
X196736044Y-82070791D01*
X196716173Y-82097851D01*
X196694734Y-82127070D01*
X196671887Y-82158231D01*
X196647789Y-82191119D01*
X196622600Y-82225518D01*
X196596477Y-82261211D01*
X196575680Y-82289644D01*
X196548925Y-82326214D01*
X196522965Y-82361667D01*
X196497961Y-82395786D01*
X196474072Y-82428355D01*
X196451458Y-82459156D01*
X196430279Y-82487973D01*
X196410693Y-82514589D01*
X196392863Y-82538787D01*
X196376946Y-82560350D01*
X196363102Y-82579061D01*
X196351493Y-82594704D01*
X196342276Y-82607061D01*
X196335613Y-82615916D01*
X196331662Y-82621051D01*
X196330570Y-82622335D01*
X196327574Y-82622529D01*
X196320025Y-82622680D01*
X196308450Y-82622789D01*
X196293375Y-82622853D01*
X196275327Y-82622870D01*
X196254833Y-82622839D01*
X196232419Y-82622759D01*
X196215648Y-82622672D01*
X196103267Y-82622010D01*
X196709225Y-81793970D01*
X196751717Y-81735907D01*
X196793457Y-81678878D01*
X196834343Y-81623019D01*
X196874276Y-81568469D01*
X196913154Y-81515363D01*
X196950878Y-81463839D01*
X196987347Y-81414036D01*
X197022459Y-81366089D01*
X197056115Y-81320136D01*
X197088214Y-81276314D01*
X197118655Y-81234761D01*
X197147338Y-81195614D01*
X197174162Y-81159011D01*
X197199027Y-81125087D01*
X197221832Y-81093981D01*
X197242477Y-81065831D01*
X197260860Y-81040772D01*
X197276882Y-81018943D01*
X197290441Y-81000481D01*
X197301437Y-80985522D01*
X197309771Y-80974205D01*
X197315340Y-80966667D01*
X197318045Y-80963044D01*
X197318294Y-80962728D01*
X197320129Y-80961936D01*
X197324193Y-80961292D01*
X197330860Y-80960789D01*
X197340504Y-80960418D01*
X197353497Y-80960171D01*
X197370212Y-80960039D01*
X197391024Y-80960016D01*
X197416304Y-80960092D01*
G37*
X197416304Y-80960092D02*
X197434850Y-80960188D01*
X197548296Y-80960850D01*
X197242148Y-81379183D01*
X197212064Y-81420298D01*
X197182787Y-81460325D01*
X197154458Y-81499069D01*
X197127217Y-81536338D01*
X197101206Y-81571940D01*
X197076566Y-81605680D01*
X197053436Y-81637366D01*
X197031957Y-81666806D01*
X197012271Y-81693806D01*
X196994518Y-81718172D01*
X196978839Y-81739713D01*
X196965374Y-81758236D01*
X196954265Y-81773546D01*
X196945651Y-81785452D01*
X196939674Y-81793760D01*
X196936474Y-81798277D01*
X196935946Y-81799087D01*
X196937407Y-81801269D01*
X196941707Y-81807370D01*
X196948703Y-81817192D01*
X196958256Y-81830541D01*
X196970224Y-81847220D01*
X196984465Y-81867032D01*
X197000838Y-81889783D01*
X197019202Y-81915275D01*
X197039416Y-81943314D01*
X197061337Y-81973701D01*
X197084825Y-82006243D01*
X197109739Y-82040742D01*
X197135938Y-82077003D01*
X197163279Y-82114829D01*
X197191622Y-82154025D01*
X197220825Y-82194395D01*
X197232671Y-82210766D01*
X197262190Y-82251564D01*
X197290913Y-82291274D01*
X197318699Y-82329701D01*
X197345405Y-82366647D01*
X197370889Y-82401916D01*
X197395010Y-82435310D01*
X197417626Y-82466635D01*
X197438595Y-82495692D01*
X197457775Y-82522285D01*
X197475025Y-82546218D01*
X197490202Y-82567293D01*
X197503164Y-82585315D01*
X197513770Y-82600086D01*
X197521878Y-82611411D01*
X197527346Y-82619091D01*
X197530033Y-82622932D01*
X197530296Y-82623347D01*
X197528016Y-82623981D01*
X197520822Y-82624522D01*
X197508878Y-82624969D01*
X197492349Y-82625317D01*
X197471400Y-82625563D01*
X197446196Y-82625703D01*
X197417266Y-82625734D01*
X197303390Y-82625649D01*
X197062090Y-82291780D01*
X197035526Y-82255037D01*
X197009765Y-82219426D01*
X196984965Y-82185163D01*
X196961283Y-82152466D01*
X196938876Y-82121550D01*
X196917902Y-82092632D01*
X196898517Y-82065929D01*
X196880880Y-82041658D01*
X196865147Y-82020034D01*
X196851475Y-82001274D01*
X196840023Y-81985596D01*
X196830948Y-81973215D01*
X196824406Y-81964347D01*
X196820556Y-81959211D01*
X196819520Y-81957933D01*
X196817906Y-81959950D01*
X196813455Y-81965854D01*
X196806324Y-81975427D01*
X196796674Y-81988455D01*
X196784661Y-82004722D01*
X196770447Y-82024010D01*
X196754188Y-82046106D01*
X196736044Y-82070791D01*
X196716173Y-82097851D01*
X196694734Y-82127070D01*
X196671887Y-82158231D01*
X196647789Y-82191119D01*
X196622600Y-82225518D01*
X196596477Y-82261211D01*
X196575680Y-82289644D01*
X196548925Y-82326214D01*
X196522965Y-82361667D01*
X196497961Y-82395786D01*
X196474072Y-82428355D01*
X196451458Y-82459156D01*
X196430279Y-82487973D01*
X196410693Y-82514589D01*
X196392863Y-82538787D01*
X196376946Y-82560350D01*
X196363102Y-82579061D01*
X196351493Y-82594704D01*
X196342276Y-82607061D01*
X196335613Y-82615916D01*
X196331662Y-82621051D01*
X196330570Y-82622335D01*
X196327574Y-82622529D01*
X196320025Y-82622680D01*
X196308450Y-82622789D01*
X196293375Y-82622853D01*
X196275327Y-82622870D01*
X196254833Y-82622839D01*
X196232419Y-82622759D01*
X196215648Y-82622672D01*
X196103267Y-82622010D01*
X196709225Y-81793970D01*
X196751717Y-81735907D01*
X196793457Y-81678878D01*
X196834343Y-81623019D01*
X196874276Y-81568469D01*
X196913154Y-81515363D01*
X196950878Y-81463839D01*
X196987347Y-81414036D01*
X197022459Y-81366089D01*
X197056115Y-81320136D01*
X197088214Y-81276314D01*
X197118655Y-81234761D01*
X197147338Y-81195614D01*
X197174162Y-81159011D01*
X197199027Y-81125087D01*
X197221832Y-81093981D01*
X197242477Y-81065831D01*
X197260860Y-81040772D01*
X197276882Y-81018943D01*
X197290441Y-81000481D01*
X197301437Y-80985522D01*
X197309771Y-80974205D01*
X197315340Y-80966667D01*
X197318045Y-80963044D01*
X197318294Y-80962728D01*
X197320129Y-80961936D01*
X197324193Y-80961292D01*
X197330860Y-80960789D01*
X197340504Y-80960418D01*
X197353497Y-80960171D01*
X197370212Y-80960039D01*
X197391024Y-80960016D01*
X197416304Y-80960092D01*
G36*
X192666209Y-80951115D02*
G01*
X192687949Y-80951898D01*
X192706476Y-80953135D01*
X192714880Y-80954013D01*
X192776536Y-80964111D01*
X192836482Y-80978858D01*
X192894502Y-80998120D01*
X192950380Y-81021760D01*
X193003901Y-81049642D01*
X193054850Y-81081632D01*
X193103012Y-81117592D01*
X193148171Y-81157388D01*
X193190111Y-81200884D01*
X193228617Y-81247944D01*
X193263475Y-81298433D01*
X193264753Y-81300462D01*
X193270950Y-81310604D01*
X193275873Y-81319176D01*
X193279032Y-81325284D01*
X193279933Y-81328034D01*
X193279927Y-81328046D01*
X193277616Y-81329794D01*
X193271584Y-81333936D01*
X193262376Y-81340116D01*
X193250541Y-81347976D01*
X193236627Y-81357159D01*
X193221181Y-81367308D01*
X193204750Y-81378066D01*
X193187883Y-81389075D01*
X193171127Y-81399979D01*
X193155029Y-81410419D01*
X193140138Y-81420039D01*
X193127000Y-81428482D01*
X193116165Y-81435390D01*
X193108178Y-81440407D01*
X193103588Y-81443174D01*
X193102794Y-81443584D01*
X193099968Y-81442718D01*
X193095905Y-81438095D01*
X193090305Y-81429339D01*
X193087184Y-81423914D01*
X193070089Y-81396428D01*
X193049427Y-81368002D01*
X193026229Y-81339852D01*
X193001528Y-81313197D01*
X192976356Y-81289254D01*
X192964480Y-81279140D01*
X192923846Y-81249172D01*
X192880247Y-81223127D01*
X192834196Y-81201226D01*
X192786208Y-81183690D01*
X192736797Y-81170740D01*
X192696452Y-81163813D01*
X192674946Y-81161768D01*
X192650221Y-81160722D01*
X192623760Y-81160637D01*
X192597045Y-81161480D01*
X192571557Y-81163214D01*
X192548779Y-81165804D01*
X192537826Y-81167603D01*
X192487286Y-81179608D01*
X192438775Y-81196099D01*
X192392534Y-81216857D01*
X192348804Y-81241666D01*
X192307826Y-81270308D01*
X192269841Y-81302566D01*
X192235090Y-81338223D01*
X192203814Y-81377062D01*
X192176252Y-81418864D01*
X192152648Y-81463413D01*
X192133240Y-81510492D01*
X192123199Y-81541621D01*
X192112556Y-81586052D01*
X192105928Y-81632105D01*
X192103432Y-81670145D01*
X192102028Y-81711420D01*
X191881031Y-81711420D01*
X191882507Y-81666335D01*
X191886951Y-81606765D01*
X191896239Y-81548219D01*
X191910196Y-81490945D01*
X191928643Y-81435192D01*
X191951405Y-81381206D01*
X191978306Y-81329239D01*
X192009168Y-81279537D01*
X192043816Y-81232349D01*
X192082073Y-81187923D01*
X192123762Y-81146510D01*
X192168708Y-81108355D01*
X192216733Y-81073709D01*
X192267661Y-81042820D01*
X192321316Y-81015936D01*
X192354200Y-81002046D01*
X192407077Y-80983465D01*
X192461789Y-80968763D01*
X192519205Y-80957716D01*
X192534540Y-80955434D01*
X192550719Y-80953688D01*
X192570782Y-80952339D01*
X192593544Y-80951399D01*
X192617825Y-80950875D01*
X192642441Y-80950777D01*
X192666209Y-80951115D01*
G37*
X192666209Y-80951115D02*
X192687949Y-80951898D01*
X192706476Y-80953135D01*
X192714880Y-80954013D01*
X192776536Y-80964111D01*
X192836482Y-80978858D01*
X192894502Y-80998120D01*
X192950380Y-81021760D01*
X193003901Y-81049642D01*
X193054850Y-81081632D01*
X193103012Y-81117592D01*
X193148171Y-81157388D01*
X193190111Y-81200884D01*
X193228617Y-81247944D01*
X193263475Y-81298433D01*
X193264753Y-81300462D01*
X193270950Y-81310604D01*
X193275873Y-81319176D01*
X193279032Y-81325284D01*
X193279933Y-81328034D01*
X193279927Y-81328046D01*
X193277616Y-81329794D01*
X193271584Y-81333936D01*
X193262376Y-81340116D01*
X193250541Y-81347976D01*
X193236627Y-81357159D01*
X193221181Y-81367308D01*
X193204750Y-81378066D01*
X193187883Y-81389075D01*
X193171127Y-81399979D01*
X193155029Y-81410419D01*
X193140138Y-81420039D01*
X193127000Y-81428482D01*
X193116165Y-81435390D01*
X193108178Y-81440407D01*
X193103588Y-81443174D01*
X193102794Y-81443584D01*
X193099968Y-81442718D01*
X193095905Y-81438095D01*
X193090305Y-81429339D01*
X193087184Y-81423914D01*
X193070089Y-81396428D01*
X193049427Y-81368002D01*
X193026229Y-81339852D01*
X193001528Y-81313197D01*
X192976356Y-81289254D01*
X192964480Y-81279140D01*
X192923846Y-81249172D01*
X192880247Y-81223127D01*
X192834196Y-81201226D01*
X192786208Y-81183690D01*
X192736797Y-81170740D01*
X192696452Y-81163813D01*
X192674946Y-81161768D01*
X192650221Y-81160722D01*
X192623760Y-81160637D01*
X192597045Y-81161480D01*
X192571557Y-81163214D01*
X192548779Y-81165804D01*
X192537826Y-81167603D01*
X192487286Y-81179608D01*
X192438775Y-81196099D01*
X192392534Y-81216857D01*
X192348804Y-81241666D01*
X192307826Y-81270308D01*
X192269841Y-81302566D01*
X192235090Y-81338223D01*
X192203814Y-81377062D01*
X192176252Y-81418864D01*
X192152648Y-81463413D01*
X192133240Y-81510492D01*
X192123199Y-81541621D01*
X192112556Y-81586052D01*
X192105928Y-81632105D01*
X192103432Y-81670145D01*
X192102028Y-81711420D01*
X191881031Y-81711420D01*
X191882507Y-81666335D01*
X191886951Y-81606765D01*
X191896239Y-81548219D01*
X191910196Y-81490945D01*
X191928643Y-81435192D01*
X191951405Y-81381206D01*
X191978306Y-81329239D01*
X192009168Y-81279537D01*
X192043816Y-81232349D01*
X192082073Y-81187923D01*
X192123762Y-81146510D01*
X192168708Y-81108355D01*
X192216733Y-81073709D01*
X192267661Y-81042820D01*
X192321316Y-81015936D01*
X192354200Y-81002046D01*
X192407077Y-80983465D01*
X192461789Y-80968763D01*
X192519205Y-80957716D01*
X192534540Y-80955434D01*
X192550719Y-80953688D01*
X192570782Y-80952339D01*
X192593544Y-80951399D01*
X192617825Y-80950875D01*
X192642441Y-80950777D01*
X192666209Y-80951115D01*
G36*
X194990720Y-81175480D02*
G01*
X193621660Y-81175480D01*
X193621660Y-80954500D01*
X194990720Y-80954500D01*
X194990720Y-81175480D01*
G37*
X194990720Y-81175480D02*
X193621660Y-81175480D01*
X193621660Y-80954500D01*
X194990720Y-80954500D01*
X194990720Y-81175480D01*
G36*
X189928500Y-82633440D02*
G01*
X188780420Y-82633440D01*
X188780420Y-82409920D01*
X189928500Y-82409920D01*
X189928500Y-82633440D01*
G37*
X189928500Y-82633440D02*
X188780420Y-82633440D01*
X188780420Y-82409920D01*
X189928500Y-82409920D01*
X189928500Y-82633440D01*
G36*
X191358520Y-81889220D02*
G01*
X190599060Y-81889220D01*
X190599060Y-82232120D01*
X190378080Y-82232120D01*
X190378080Y-81665700D01*
X191358520Y-81665700D01*
X191358520Y-81889220D01*
G37*
X191358520Y-81889220D02*
X190599060Y-81889220D01*
X190599060Y-82232120D01*
X190378080Y-82232120D01*
X190378080Y-81665700D01*
X191358520Y-81665700D01*
X191358520Y-81889220D01*
G04 #@! TD*
D11*
G04 #@! TO.C,H3*
X203200000Y-81280000D03*
G04 #@! TD*
G04 #@! TO.C,H4*
X203200000Y-50800000D03*
G04 #@! TD*
D12*
G04 #@! TO.C,J3*
X203200000Y-73660000D03*
D13*
X203200000Y-68580000D03*
G04 #@! TD*
D12*
G04 #@! TO.C,J4*
X203200000Y-63500000D03*
D13*
X203200000Y-58420000D03*
G04 #@! TD*
D11*
G04 #@! TO.C,H2*
X182880000Y-50800000D03*
G04 #@! TD*
G04 #@! TO.C,H1*
X182880000Y-81280000D03*
G04 #@! TD*
D12*
G04 #@! TO.C,J1*
X182880000Y-58420000D03*
D13*
X182880000Y-63500000D03*
G04 #@! TD*
D12*
G04 #@! TO.C,J2*
X182880000Y-68580000D03*
D13*
X182880000Y-73660000D03*
G04 #@! TD*
M02*
