G04 #@! TF.GenerationSoftware,KiCad,Pcbnew,6.0.9-8da3e8f707~116~ubuntu20.04.1*
G04 #@! TF.CreationDate,2023-04-19T17:51:41+00:00*
G04 #@! TF.ProjectId,LEC030301,4c454330-3330-4333-9031-2e6b69636164,rev?*
G04 #@! TF.SameCoordinates,Original*
G04 #@! TF.FileFunction,Legend,Top*
G04 #@! TF.FilePolarity,Positive*
%FSLAX46Y46*%
G04 Gerber Fmt 4.6, Leading zero omitted, Abs format (unit mm)*
G04 Created by KiCad (PCBNEW 6.0.9-8da3e8f707~116~ubuntu20.04.1) date 2023-04-19 17:51:41*
%MOMM*%
%LPD*%
G01*
G04 APERTURE LIST*
%ADD10C,0.800000*%
%ADD11C,0.120000*%
%ADD12C,0.100000*%
%ADD13C,0.150000*%
%ADD14C,0.010000*%
G04 APERTURE END LIST*
D10*
X187960000Y-58420000D02*
X185420000Y-58420000D01*
X189230000Y-59690000D02*
X187960000Y-58420000D01*
X189230000Y-68580000D02*
X185420000Y-68580000D01*
X189230000Y-63500000D02*
X185420000Y-63500000D01*
X185420000Y-73660000D02*
X186690000Y-73660000D01*
X187960000Y-73660000D02*
X189230000Y-72390000D01*
X186690000Y-73660000D02*
X187960000Y-73660000D01*
D11*
X198120000Y-80510000D02*
X187960000Y-80510000D01*
D10*
X189230000Y-59690000D02*
X189230000Y-72390000D01*
X196850000Y-59690000D02*
X196850000Y-72390000D01*
X200660000Y-63500000D02*
X196850000Y-63500000D01*
X196850000Y-59690000D02*
X198120000Y-58420000D01*
X198120000Y-58420000D02*
X200660000Y-58420000D01*
D11*
X199390000Y-81280000D02*
X199390000Y-80645000D01*
X199390000Y-50800000D02*
X199390000Y-51435000D01*
D10*
X198120000Y-73660000D02*
X196850000Y-72390000D01*
D11*
X198120000Y-84590000D02*
X198120000Y-80510000D01*
X186690000Y-80645000D02*
X186690000Y-81280000D01*
X186690000Y-83185000D02*
X186690000Y-83820000D01*
X186690000Y-48260000D02*
X186690000Y-48895000D01*
X199390000Y-48260000D02*
X199390000Y-48895000D01*
D10*
X196850000Y-68580000D02*
X200660000Y-68580000D01*
D11*
X199390000Y-82550000D02*
X199390000Y-81915000D01*
D12*
G36*
X198120000Y-52070000D02*
G01*
X187960000Y-52070000D01*
X187960000Y-46990000D01*
X198120000Y-46990000D01*
X198120000Y-52070000D01*
G37*
X198120000Y-52070000D02*
X187960000Y-52070000D01*
X187960000Y-46990000D01*
X198120000Y-46990000D01*
X198120000Y-52070000D01*
D10*
X200660000Y-73660000D02*
X198120000Y-73660000D01*
D11*
X199390000Y-49530000D02*
X199390000Y-50165000D01*
X186690000Y-81915000D02*
X186690000Y-82550000D01*
X187960000Y-80510000D02*
X187960000Y-84590000D01*
X199390000Y-83820000D02*
X199390000Y-83185000D01*
X186690000Y-49530000D02*
X186690000Y-50165000D01*
X186690000Y-50800000D02*
X186690000Y-51435000D01*
X187960000Y-84590000D02*
X198120000Y-84590000D01*
D13*
X189540000Y-84132380D02*
X189063809Y-84132380D01*
X189063809Y-83132380D01*
X189873333Y-83608571D02*
X190206666Y-83608571D01*
X190349523Y-84132380D02*
X189873333Y-84132380D01*
X189873333Y-83132380D01*
X190349523Y-83132380D01*
X191349523Y-84037142D02*
X191301904Y-84084761D01*
X191159047Y-84132380D01*
X191063809Y-84132380D01*
X190920952Y-84084761D01*
X190825714Y-83989523D01*
X190778095Y-83894285D01*
X190730476Y-83703809D01*
X190730476Y-83560952D01*
X190778095Y-83370476D01*
X190825714Y-83275238D01*
X190920952Y-83180000D01*
X191063809Y-83132380D01*
X191159047Y-83132380D01*
X191301904Y-83180000D01*
X191349523Y-83227619D01*
X191968571Y-83132380D02*
X192063809Y-83132380D01*
X192159047Y-83180000D01*
X192206666Y-83227619D01*
X192254285Y-83322857D01*
X192301904Y-83513333D01*
X192301904Y-83751428D01*
X192254285Y-83941904D01*
X192206666Y-84037142D01*
X192159047Y-84084761D01*
X192063809Y-84132380D01*
X191968571Y-84132380D01*
X191873333Y-84084761D01*
X191825714Y-84037142D01*
X191778095Y-83941904D01*
X191730476Y-83751428D01*
X191730476Y-83513333D01*
X191778095Y-83322857D01*
X191825714Y-83227619D01*
X191873333Y-83180000D01*
X191968571Y-83132380D01*
X192635238Y-83132380D02*
X193254285Y-83132380D01*
X192920952Y-83513333D01*
X193063809Y-83513333D01*
X193159047Y-83560952D01*
X193206666Y-83608571D01*
X193254285Y-83703809D01*
X193254285Y-83941904D01*
X193206666Y-84037142D01*
X193159047Y-84084761D01*
X193063809Y-84132380D01*
X192778095Y-84132380D01*
X192682857Y-84084761D01*
X192635238Y-84037142D01*
X193873333Y-83132380D02*
X193968571Y-83132380D01*
X194063809Y-83180000D01*
X194111428Y-83227619D01*
X194159047Y-83322857D01*
X194206666Y-83513333D01*
X194206666Y-83751428D01*
X194159047Y-83941904D01*
X194111428Y-84037142D01*
X194063809Y-84084761D01*
X193968571Y-84132380D01*
X193873333Y-84132380D01*
X193778095Y-84084761D01*
X193730476Y-84037142D01*
X193682857Y-83941904D01*
X193635238Y-83751428D01*
X193635238Y-83513333D01*
X193682857Y-83322857D01*
X193730476Y-83227619D01*
X193778095Y-83180000D01*
X193873333Y-83132380D01*
X194540000Y-83132380D02*
X195159047Y-83132380D01*
X194825714Y-83513333D01*
X194968571Y-83513333D01*
X195063809Y-83560952D01*
X195111428Y-83608571D01*
X195159047Y-83703809D01*
X195159047Y-83941904D01*
X195111428Y-84037142D01*
X195063809Y-84084761D01*
X194968571Y-84132380D01*
X194682857Y-84132380D01*
X194587619Y-84084761D01*
X194540000Y-84037142D01*
X195778095Y-83132380D02*
X195873333Y-83132380D01*
X195968571Y-83180000D01*
X196016190Y-83227619D01*
X196063809Y-83322857D01*
X196111428Y-83513333D01*
X196111428Y-83751428D01*
X196063809Y-83941904D01*
X196016190Y-84037142D01*
X195968571Y-84084761D01*
X195873333Y-84132380D01*
X195778095Y-84132380D01*
X195682857Y-84084761D01*
X195635238Y-84037142D01*
X195587619Y-83941904D01*
X195540000Y-83751428D01*
X195540000Y-83513333D01*
X195587619Y-83322857D01*
X195635238Y-83227619D01*
X195682857Y-83180000D01*
X195778095Y-83132380D01*
X197063809Y-84132380D02*
X196492380Y-84132380D01*
X196778095Y-84132380D02*
X196778095Y-83132380D01*
X196682857Y-83275238D01*
X196587619Y-83370476D01*
X196492380Y-83418095D01*
G04 #@! TO.C,J3*
X200252380Y-71173333D02*
X200966666Y-71173333D01*
X201109523Y-71220952D01*
X201204761Y-71316190D01*
X201252380Y-71459047D01*
X201252380Y-71554285D01*
X200252380Y-70792380D02*
X200252380Y-70173333D01*
X200633333Y-70506666D01*
X200633333Y-70363809D01*
X200680952Y-70268571D01*
X200728571Y-70220952D01*
X200823809Y-70173333D01*
X201061904Y-70173333D01*
X201157142Y-70220952D01*
X201204761Y-70268571D01*
X201252380Y-70363809D01*
X201252380Y-70649523D01*
X201204761Y-70744761D01*
X201157142Y-70792380D01*
G04 #@! TO.C,J4*
X200252380Y-61273333D02*
X200966666Y-61273333D01*
X201109523Y-61320952D01*
X201204761Y-61416190D01*
X201252380Y-61559047D01*
X201252380Y-61654285D01*
X200585714Y-60368571D02*
X201252380Y-60368571D01*
X200204761Y-60606666D02*
X200919047Y-60844761D01*
X200919047Y-60225714D01*
G04 #@! TO.C,J1*
X184652380Y-61773333D02*
X185366666Y-61773333D01*
X185509523Y-61820952D01*
X185604761Y-61916190D01*
X185652380Y-62059047D01*
X185652380Y-62154285D01*
X185652380Y-60773333D02*
X185652380Y-61344761D01*
X185652380Y-61059047D02*
X184652380Y-61059047D01*
X184795238Y-61154285D01*
X184890476Y-61249523D01*
X184938095Y-61344761D01*
G04 #@! TO.C,J2*
X184752380Y-71973333D02*
X185466666Y-71973333D01*
X185609523Y-72020952D01*
X185704761Y-72116190D01*
X185752380Y-72259047D01*
X185752380Y-72354285D01*
X184847619Y-71544761D02*
X184800000Y-71497142D01*
X184752380Y-71401904D01*
X184752380Y-71163809D01*
X184800000Y-71068571D01*
X184847619Y-71020952D01*
X184942857Y-70973333D01*
X185038095Y-70973333D01*
X185180952Y-71020952D01*
X185752380Y-71592380D01*
X185752380Y-70973333D01*
D11*
G04 #@! TO.C,H3*
X206424903Y-81280000D02*
G75*
G03*
X206424903Y-81280000I-3224903J0D01*
G01*
G36*
X201600000Y-81380000D02*
G01*
X201700000Y-81780000D01*
X201900000Y-82180000D01*
X202300000Y-82580000D01*
X202700000Y-82780000D01*
X203100000Y-82880000D01*
X203200000Y-82880000D01*
X203200000Y-84504903D01*
X202700000Y-84480000D01*
X201700000Y-84180000D01*
X200900000Y-83580000D01*
X200400000Y-82880000D01*
X200100000Y-82180000D01*
X200000000Y-81780000D01*
X200000000Y-81280000D01*
X201600000Y-81280000D01*
X201600000Y-81380000D01*
G37*
D14*
X201600000Y-81380000D02*
X201700000Y-81780000D01*
X201900000Y-82180000D01*
X202300000Y-82580000D01*
X202700000Y-82780000D01*
X203100000Y-82880000D01*
X203200000Y-82880000D01*
X203200000Y-84504903D01*
X202700000Y-84480000D01*
X201700000Y-84180000D01*
X200900000Y-83580000D01*
X200400000Y-82880000D01*
X200100000Y-82180000D01*
X200000000Y-81780000D01*
X200000000Y-81280000D01*
X201600000Y-81280000D01*
X201600000Y-81380000D01*
G36*
X203700000Y-78080000D02*
G01*
X204700000Y-78380000D01*
X205500000Y-78980000D01*
X206000000Y-79680000D01*
X206300000Y-80380000D01*
X206400000Y-80780000D01*
X206400000Y-81280000D01*
X204800000Y-81280000D01*
X204800000Y-81180000D01*
X204700000Y-80780000D01*
X204500000Y-80380000D01*
X204100000Y-79980000D01*
X203700000Y-79780000D01*
X203300000Y-79680000D01*
X203200000Y-79680000D01*
X203200000Y-78055097D01*
X203700000Y-78080000D01*
G37*
X203700000Y-78080000D02*
X204700000Y-78380000D01*
X205500000Y-78980000D01*
X206000000Y-79680000D01*
X206300000Y-80380000D01*
X206400000Y-80780000D01*
X206400000Y-81280000D01*
X204800000Y-81280000D01*
X204800000Y-81180000D01*
X204700000Y-80780000D01*
X204500000Y-80380000D01*
X204100000Y-79980000D01*
X203700000Y-79780000D01*
X203300000Y-79680000D01*
X203200000Y-79680000D01*
X203200000Y-78055097D01*
X203700000Y-78080000D01*
D11*
G04 #@! TO.C,H4*
X206424903Y-50800000D02*
G75*
G03*
X206424903Y-50800000I-3224903J0D01*
G01*
G36*
X201600000Y-50900000D02*
G01*
X201700000Y-51300000D01*
X201900000Y-51700000D01*
X202300000Y-52100000D01*
X202700000Y-52300000D01*
X203100000Y-52400000D01*
X203200000Y-52400000D01*
X203200000Y-54024903D01*
X202700000Y-54000000D01*
X201700000Y-53700000D01*
X200900000Y-53100000D01*
X200400000Y-52400000D01*
X200100000Y-51700000D01*
X200000000Y-51300000D01*
X200000000Y-50800000D01*
X201600000Y-50800000D01*
X201600000Y-50900000D01*
G37*
D14*
X201600000Y-50900000D02*
X201700000Y-51300000D01*
X201900000Y-51700000D01*
X202300000Y-52100000D01*
X202700000Y-52300000D01*
X203100000Y-52400000D01*
X203200000Y-52400000D01*
X203200000Y-54024903D01*
X202700000Y-54000000D01*
X201700000Y-53700000D01*
X200900000Y-53100000D01*
X200400000Y-52400000D01*
X200100000Y-51700000D01*
X200000000Y-51300000D01*
X200000000Y-50800000D01*
X201600000Y-50800000D01*
X201600000Y-50900000D01*
G36*
X203700000Y-47600000D02*
G01*
X204700000Y-47900000D01*
X205500000Y-48500000D01*
X206000000Y-49200000D01*
X206300000Y-49900000D01*
X206400000Y-50300000D01*
X206400000Y-50800000D01*
X204800000Y-50800000D01*
X204800000Y-50700000D01*
X204700000Y-50300000D01*
X204500000Y-49900000D01*
X204100000Y-49500000D01*
X203700000Y-49300000D01*
X203300000Y-49200000D01*
X203200000Y-49200000D01*
X203200000Y-47575097D01*
X203700000Y-47600000D01*
G37*
X203700000Y-47600000D02*
X204700000Y-47900000D01*
X205500000Y-48500000D01*
X206000000Y-49200000D01*
X206300000Y-49900000D01*
X206400000Y-50300000D01*
X206400000Y-50800000D01*
X204800000Y-50800000D01*
X204800000Y-50700000D01*
X204700000Y-50300000D01*
X204500000Y-49900000D01*
X204100000Y-49500000D01*
X203700000Y-49300000D01*
X203300000Y-49200000D01*
X203200000Y-49200000D01*
X203200000Y-47575097D01*
X203700000Y-47600000D01*
D11*
G04 #@! TO.C,J3*
X198890000Y-76200000D02*
X207010000Y-76200000D01*
X207010000Y-66040000D02*
X198890000Y-66040000D01*
X198890000Y-66040000D02*
X198890000Y-76200000D01*
X205740000Y-66040000D02*
X205740000Y-76200000D01*
X207010000Y-76200000D02*
X207010000Y-66040000D01*
G04 #@! TO.C,J4*
X198890000Y-66040000D02*
X207010000Y-66040000D01*
X207010000Y-55880000D02*
X198890000Y-55880000D01*
X205740000Y-55880000D02*
X205740000Y-66040000D01*
X198890000Y-55880000D02*
X198890000Y-66040000D01*
X207010000Y-66040000D02*
X207010000Y-55880000D01*
G04 #@! TO.C,H2*
X186104903Y-50800000D02*
G75*
G03*
X186104903Y-50800000I-3224903J0D01*
G01*
G36*
X183380000Y-47600000D02*
G01*
X184380000Y-47900000D01*
X185180000Y-48500000D01*
X185680000Y-49200000D01*
X185980000Y-49900000D01*
X186080000Y-50300000D01*
X186080000Y-50800000D01*
X184480000Y-50800000D01*
X184480000Y-50700000D01*
X184380000Y-50300000D01*
X184180000Y-49900000D01*
X183780000Y-49500000D01*
X183380000Y-49300000D01*
X182980000Y-49200000D01*
X182880000Y-49200000D01*
X182880000Y-47575097D01*
X183380000Y-47600000D01*
G37*
D14*
X183380000Y-47600000D02*
X184380000Y-47900000D01*
X185180000Y-48500000D01*
X185680000Y-49200000D01*
X185980000Y-49900000D01*
X186080000Y-50300000D01*
X186080000Y-50800000D01*
X184480000Y-50800000D01*
X184480000Y-50700000D01*
X184380000Y-50300000D01*
X184180000Y-49900000D01*
X183780000Y-49500000D01*
X183380000Y-49300000D01*
X182980000Y-49200000D01*
X182880000Y-49200000D01*
X182880000Y-47575097D01*
X183380000Y-47600000D01*
G36*
X181280000Y-50900000D02*
G01*
X181380000Y-51300000D01*
X181580000Y-51700000D01*
X181980000Y-52100000D01*
X182380000Y-52300000D01*
X182780000Y-52400000D01*
X182880000Y-52400000D01*
X182880000Y-54024903D01*
X182380000Y-54000000D01*
X181380000Y-53700000D01*
X180580000Y-53100000D01*
X180080000Y-52400000D01*
X179780000Y-51700000D01*
X179680000Y-51300000D01*
X179680000Y-50800000D01*
X181280000Y-50800000D01*
X181280000Y-50900000D01*
G37*
X181280000Y-50900000D02*
X181380000Y-51300000D01*
X181580000Y-51700000D01*
X181980000Y-52100000D01*
X182380000Y-52300000D01*
X182780000Y-52400000D01*
X182880000Y-52400000D01*
X182880000Y-54024903D01*
X182380000Y-54000000D01*
X181380000Y-53700000D01*
X180580000Y-53100000D01*
X180080000Y-52400000D01*
X179780000Y-51700000D01*
X179680000Y-51300000D01*
X179680000Y-50800000D01*
X181280000Y-50800000D01*
X181280000Y-50900000D01*
D11*
G04 #@! TO.C,H1*
X186104903Y-81280000D02*
G75*
G03*
X186104903Y-81280000I-3224903J0D01*
G01*
G36*
X183380000Y-78080000D02*
G01*
X184380000Y-78380000D01*
X185180000Y-78980000D01*
X185680000Y-79680000D01*
X185980000Y-80380000D01*
X186080000Y-80780000D01*
X186080000Y-81280000D01*
X184480000Y-81280000D01*
X184480000Y-81180000D01*
X184380000Y-80780000D01*
X184180000Y-80380000D01*
X183780000Y-79980000D01*
X183380000Y-79780000D01*
X182980000Y-79680000D01*
X182880000Y-79680000D01*
X182880000Y-78055097D01*
X183380000Y-78080000D01*
G37*
D14*
X183380000Y-78080000D02*
X184380000Y-78380000D01*
X185180000Y-78980000D01*
X185680000Y-79680000D01*
X185980000Y-80380000D01*
X186080000Y-80780000D01*
X186080000Y-81280000D01*
X184480000Y-81280000D01*
X184480000Y-81180000D01*
X184380000Y-80780000D01*
X184180000Y-80380000D01*
X183780000Y-79980000D01*
X183380000Y-79780000D01*
X182980000Y-79680000D01*
X182880000Y-79680000D01*
X182880000Y-78055097D01*
X183380000Y-78080000D01*
G36*
X181280000Y-81380000D02*
G01*
X181380000Y-81780000D01*
X181580000Y-82180000D01*
X181980000Y-82580000D01*
X182380000Y-82780000D01*
X182780000Y-82880000D01*
X182880000Y-82880000D01*
X182880000Y-84504903D01*
X182380000Y-84480000D01*
X181380000Y-84180000D01*
X180580000Y-83580000D01*
X180080000Y-82880000D01*
X179780000Y-82180000D01*
X179680000Y-81780000D01*
X179680000Y-81280000D01*
X181280000Y-81280000D01*
X181280000Y-81380000D01*
G37*
X181280000Y-81380000D02*
X181380000Y-81780000D01*
X181580000Y-82180000D01*
X181980000Y-82580000D01*
X182380000Y-82780000D01*
X182780000Y-82880000D01*
X182880000Y-82880000D01*
X182880000Y-84504903D01*
X182380000Y-84480000D01*
X181380000Y-84180000D01*
X180580000Y-83580000D01*
X180080000Y-82880000D01*
X179780000Y-82180000D01*
X179680000Y-81780000D01*
X179680000Y-81280000D01*
X181280000Y-81280000D01*
X181280000Y-81380000D01*
D11*
G04 #@! TO.C,J1*
X187180000Y-66040000D02*
X187180000Y-55880000D01*
X187180000Y-55860000D02*
X179070000Y-55880000D01*
X179070000Y-55880000D02*
X179070000Y-66040000D01*
X179070000Y-66040000D02*
X187180000Y-66040000D01*
X180340000Y-66040000D02*
X180340000Y-55880000D01*
G04 #@! TO.C,J2*
X180340000Y-76200000D02*
X180340000Y-66040000D01*
X179070000Y-76200000D02*
X187180000Y-76200000D01*
X179070000Y-66040000D02*
X179070000Y-76200000D01*
X187180000Y-76200000D02*
X187180000Y-66040000D01*
X187180000Y-66020000D02*
X179070000Y-66040000D01*
G04 #@! TD*
M02*
